<svg style="max-width:480px;width:100%;height:auto;display:block;margin:1em auto;background:#fff;padding:10px;border:1px solid #e5e7eb;border-radius:6px" xmlns="http://www.w3.org/2000/svg" xmlns:xlink="http://www.w3.org/1999/xlink" xml:lang="en" viewBox="-39.459999999999994 -148.60000000000002 188.06 238.9"><circle cx="0" cy="-72" r="18" style="stroke:#1f2937;fill:none;stroke-width:1.15;stroke-dasharray:-;" /><polygon points="25.181,-37.909 40.455,-40.455 37.909,-25.181 " style="stroke:#1f2937;fill:none;stroke-width:1.15;stroke-dasharray:-;stroke-linecap:round;stroke-linejoin:round;" /><polygon points="106.091,-25.181 103.545,-40.455 118.819,-37.909 " style="stroke:#1f2937;fill:none;stroke-width:1.15;stroke-dasharray:-;stroke-linecap:round;stroke-linejoin:round;" /><polygon points="37.909,25.181 40.455,40.455 25.181,37.909 " style="stroke:#1f2937;fill:none;stroke-width:1.15;stroke-dasharray:-;stroke-linecap:round;stroke-linejoin:round;" /><polygon points="118.819,37.909 103.545,40.455 106.091,25.181 " style="stroke:#1f2937;fill:none;stroke-width:1.15;stroke-dasharray:-;stroke-linecap:round;stroke-linejoin:round;" /><path d="M 0.0,-0.0 L 0,-54 L 0,-54 M 0,-90 L 0,-90 L 0,-144" style="stroke:#1f2937;fill:none;stroke-width:1.15;stroke-dasharray:-;stroke-linecap:round;stroke-linejoin:round;" /><path d="M 9.000000000000004,-72.0 L 8.25,-73.863 L 7.5,-75.6 L 6.75,-77.091 L 6,-78.235 L 5.25,-78.955 L 4.5,-79.2 L 3.75,-78.955 L 3,-78.235 L 2.25,-77.091 L 1.5,-75.6 L 0.75,-73.863 L 0,-72 L -0.75,-70.137 L -1.5,-68.4 L -2.25,-66.909 L -3,-65.765 L -3.75,-65.045 L -4.5,-64.8 L -5.25,-65.045 L -6,-65.765 L -6.75,-66.909 L -7.5,-68.4 L -8.25,-70.137 L -9,-72" style="stroke:#1f2937;fill:none;stroke-width:1.15;stroke-dasharray:-;stroke-linecap:round;stroke-linejoin:round;" /><path d="M 0.0,-0.0 L 31.545,-31.545 M 34.091,-46.819 L 46.819,-34.091 M 40.455,-40.455 L 72,-72" style="stroke:#1f2937;fill:none;stroke-width:1.15;stroke-dasharray:-;stroke-linecap:round;stroke-linejoin:round;" /><path d="M 144.0,-0.0 L 112.455,-31.545 M 97.181,-34.091 L 109.909,-46.819 M 103.545,-40.455 L 72,-72" style="stroke:#1f2937;fill:none;stroke-width:1.15;stroke-dasharray:-;stroke-linecap:round;stroke-linejoin:round;" /><path d="M 0.0,-0.0 L 31.545,31.545 M 46.819,34.091 L 34.091,46.819 M 40.455,40.455 L 72,72" style="stroke:#1f2937;fill:none;stroke-width:1.15;stroke-dasharray:-;stroke-linecap:round;stroke-linejoin:round;" /><path d="M 144.0,-0.0 L 112.455,31.545 M 109.909,46.819 L 97.181,34.091 M 103.545,40.455 L 72,72" style="stroke:#1f2937;fill:none;stroke-width:1.15;stroke-dasharray:-;stroke-linecap:round;stroke-linejoin:round;" /><path d="M 72.0,-72.0 L 72,-18 L 81,-15 L 63,-9 L 81,-3 L 63,3 L 81,9 L 63,15 L 72,18 L 72,72" style="stroke:#1f2937;fill:none;stroke-width:1.15;stroke-dasharray:-;stroke-linecap:round;stroke-linejoin:round;" /><text x="-21.599999999999994" y="-85.0" dominant-baseline="central" fill="#1f2937" font-size="13" font-family="sans" text-anchor="end"><tspan x="-21.599999999999994" dy="13">u₂</tspan></text><text x="32.18162338159265" y="-68.0918830920368" dominant-baseline="ideographic" fill="#1f2937" font-size="13" font-family="sans" text-anchor="end"><tspan x="32.18162338159265" dy="13">D1</tspan></text><text x="116.9095454429505" y="-42.63603896932108" dominant-baseline="ideographic" fill="#1f2937" font-size="13" font-family="sans" text-anchor="start"><tspan x="116.9095454429505" dy="13">D3</tspan></text><text x="44.9095454429505" y="29.36396103067893" dominant-baseline="ideographic" fill="#1f2937" font-size="13" font-family="sans" text-anchor="start"><tspan x="44.9095454429505" dy="13">D2</tspan></text><text x="104.18162338159266" y="3.908116907963219" dominant-baseline="ideographic" fill="#1f2937" font-size="13" font-family="sans" text-anchor="end"><tspan x="104.18162338159266" dy="13">D4</tspan></text><text x="63.00000000000001" y="-2.2000000000000064" dominant-baseline="central" fill="#1f2937" font-size="13" font-family="sans" text-anchor="end"><tspan x="63.00000000000001" dy="13">R<tspan baseline-shift="-2" font-size="smaller">L</tspan></tspan></text><text x="57.6" y="-85.0" dominant-baseline="central" fill="#1f2937" font-size="13" font-family="sans" text-anchor="middle"><tspan x="57.6" dy="13">+</tspan></text><text x="57.6" y="66.2" dominant-baseline="central" fill="#1f2937" font-size="13" font-family="sans" text-anchor="middle"><tspan x="57.6" dy="13">-</tspan></text><text x="90.0" y="-9.4" dominant-baseline="central" fill="#1f2937" font-size="13" font-family="sans" text-anchor="middle"><tspan x="90.0" dy="13">u<tspan baseline-shift="-2" font-size="smaller">o</tspan></tspan></text></svg>