<svg style="max-width:480px;width:100%;height:auto;display:block;margin:1em auto;background:#fff;padding:10px;border:1px solid #e5e7eb;border-radius:6px" xmlns="http://www.w3.org/2000/svg" xmlns:xlink="http://www.w3.org/1999/xlink" xml:lang="en" viewBox="-4.6 -151.50000000000003 213.92299999999997 200.62000000000003"><path d="M 18.0,-122.39999999999999 L 99,-122.4 L 180,-122.4" style="stroke:#1f2937;fill:none;stroke-width:1.15;stroke-dasharray:-;stroke-linecap:round;stroke-linejoin:round;" /><path d="M 108.0,-46.800000000000004 L 121.2,-46.8" style="stroke:#1f2937;fill:none;stroke-width:1.15;stroke-dasharray:-;stroke-linecap:round;stroke-linejoin:round;" /><path d="M 121.2,-60.0 L 121.2,-33.6" style="stroke:#1f2937;fill:none;stroke-width:1.15;stroke-dasharray:-;stroke-linecap:round;stroke-linejoin:round;" /><path d="M 121.2,-53.400000000000006 L 135.06,-65.28 L 135.06,-71.88" style="stroke:#1f2937;fill:none;stroke-width:1.15;stroke-dasharray:-;stroke-linecap:round;stroke-linejoin:round;" /><path d="M 121.2,-40.2 L 135.06,-28.32 L 135.06,-21.72" style="stroke:#1f2937;fill:none;stroke-width:1.15;stroke-dasharray:-;stroke-linecap:round;stroke-linejoin:round;" /><path d="M 121.2,-40.2 L 128.227,-34.177" style="stroke:#1f2937;fill:none;stroke-width:1.15;stroke-dasharray:-;stroke-linecap:round;stroke-linejoin:round;" /><path d="M 133.541 -29.622 L 125.884 -31.444 L 130.57 -36.91 Z" style="stroke:#1f2937;fill:#1f2937;stroke-linecap:butt;stroke-linejoin:miter;" /><path d="M 135.06,-71.88 L 135.06,-79.14 L 126.06,-82.14 L 144.06,-88.14 L 126.06,-94.14 L 144.06,-100.14 L 126.06,-106.14 L 144.06,-112.14 L 135.06,-115.14 L 135.06,-122.4" style="stroke:#1f2937;fill:none;stroke-width:1.15;stroke-dasharray:-;stroke-linecap:round;stroke-linejoin:round;" /><path d="M 135.06,-21.720000000000002 L 135.06,-18.12 L 144.06,-15.12 L 126.06,-9.12 L 144.06,-3.12 L 126.06,2.88 L 144.06,8.88 L 126.06,14.88 L 135.06,17.88 L 135.06,21.48" style="stroke:#1f2937;fill:none;stroke-width:1.15;stroke-dasharray:-;stroke-linecap:round;stroke-linejoin:round;" /><path d="M 135.06,-21.720000000000002 L 158.46,-21.72 L 181.86,-21.72" style="stroke:#1f2937;fill:none;stroke-width:1.15;stroke-dasharray:-;stroke-linecap:round;stroke-linejoin:round;" /><path d="M 181.86,-21.720000000000002 L 181.86,-3.36 M 190.86,-3.36 L 172.86,-3.36 M 190.86,3.12 L 172.86,3.12 M 181.86,3.12 L 181.86,21.48" style="stroke:#1f2937;fill:none;stroke-width:1.15;stroke-dasharray:-;stroke-linecap:round;stroke-linejoin:round;" /><path d="M 181.86,21.480000000000004 L 158.46,21.48 L 135.06,21.48" style="stroke:#1f2937;fill:none;stroke-width:1.15;stroke-dasharray:-;stroke-linecap:round;stroke-linejoin:round;" /><path d="M 43.199999999999996,-46.800000000000004 L 43.2,-66.6 L 34.2,-69.6 L 52.2,-75.6 L 34.2,-81.6 L 52.2,-87.6 L 34.2,-93.6 L 52.2,-99.6 L 43.2,-102.6 L 43.2,-122.4" style="stroke:#1f2937;fill:none;stroke-width:1.15;stroke-dasharray:-;stroke-linecap:round;stroke-linejoin:round;" /><path d="M 43.199999999999996,-46.800000000000004 L 43.2,-43.2 L 52.2,-40.2 L 34.2,-34.2 L 52.2,-28.2 L 34.2,-22.2 L 52.2,-16.2 L 34.2,-10.2 L 43.2,-7.2 L 43.2,-3.6" style="stroke:#1f2937;fill:none;stroke-width:1.15;stroke-dasharray:-;stroke-linecap:round;stroke-linejoin:round;" /><path d="M 108.0,-46.800000000000004 L 75.6,-46.8 L 43.2,-46.8" style="stroke:#1f2937;fill:none;stroke-width:1.15;stroke-dasharray:-;stroke-linecap:round;stroke-linejoin:round;" /><path d="M 43.199999999999996,-46.800000000000004 L 24.84,-46.8 M 24.84,-37.8 L 24.84,-55.8 M 18.36,-37.8 L 18.36,-55.8 M 18.36,-46.8 L 0,-46.8" style="stroke:#1f2937;fill:none;stroke-width:1.15;stroke-dasharray:-;stroke-linecap:round;stroke-linejoin:round;" /><path d="M 43.199999999999996,-46.800000000000004 L 32.4,-46.8 L 21.6,-46.8" style="stroke:#1f2937;fill:none;stroke-width:1.15;stroke-dasharray:-;stroke-linecap:round;stroke-linejoin:round;" /><path d="M 135.06,-71.88 L 135.06,-79.08 L 135.06,-86.28" style="stroke:#1f2937;fill:none;stroke-width:1.15;stroke-dasharray:-;stroke-linecap:round;stroke-linejoin:round;" /><path d="M 135.06,-86.28 L 157.02,-86.28 M 157.02,-95.28 L 157.02,-77.28 M 163.5,-95.28 L 163.5,-77.28 M 163.5,-86.28 L 185.46,-86.28" style="stroke:#1f2937;fill:none;stroke-width:1.15;stroke-dasharray:-;stroke-linecap:round;stroke-linejoin:round;" /><path d="M 43.19999999999999,-3.599999999999995 L 112.53,-3.6 L 181.86,-3.6" style="stroke:#1f2937;fill:none;stroke-width:1.15;stroke-dasharray:-;stroke-linecap:round;stroke-linejoin:round;" /><path d="M 135.06,21.480000000000004 L 135.06,35.88 L 126.06,35.88 L 144.06,35.88 M 128.76,40.2 L 141.36,40.2 M 133.26,44.52 L 136.86,44.52" style="stroke:#1f2937;fill:none;stroke-width:1.15;stroke-dasharray:-;stroke-linecap:round;stroke-linejoin:round;" /><text x="118.80000000000001" y="-153.4" dominant-baseline="central" fill="#1f2937" font-size="13" font-family="sans" text-anchor="middle"><tspan x="118.80000000000001" dy="13">+VCC</tspan></text><text x="122.46" y="-110.14" dominant-baseline="central" fill="#1f2937" font-size="13" font-family="sans" text-anchor="end"><tspan x="122.46" dy="13">R<tspan baseline-shift="-2" font-size="smaller">c</tspan></tspan></text><text x="122.46" y="-13.120000000000006" dominant-baseline="central" fill="#1f2937" font-size="13" font-family="sans" text-anchor="end"><tspan x="122.46" dy="13">R<tspan baseline-shift="-2" font-size="smaller">e</tspan></tspan></text><text x="169.26" y="-13.120000000000006" dominant-baseline="central" fill="#1f2937" font-size="13" font-family="sans" text-anchor="end"><tspan x="169.26" dy="13">C<tspan baseline-shift="-2" font-size="smaller">e</tspan></tspan></text><text x="30.6" y="-97.6" dominant-baseline="central" fill="#1f2937" font-size="13" font-family="sans" text-anchor="end"><tspan x="30.6" dy="13">R<tspan baseline-shift="-2" font-size="smaller">b1</tspan></tspan></text><text x="30.599999999999994" y="-38.2" dominant-baseline="central" fill="#1f2937" font-size="13" font-family="sans" text-anchor="end"><tspan x="30.599999999999994" dy="13">R<tspan baseline-shift="-2" font-size="smaller">b2</tspan></tspan></text><text x="21.599999999999998" y="-72.4" dominant-baseline="ideographic" fill="#1f2937" font-size="13" font-family="sans" text-anchor="middle"><tspan x="21.599999999999998" dy="13">C₁</tspan></text><text x="7.199999999999997" y="-59.800000000000004" dominant-baseline="central" fill="#1f2937" font-size="13" font-family="sans" text-anchor="middle"><tspan x="7.199999999999997" dy="13">v<tspan baseline-shift="-2" font-size="smaller">i</tspan></tspan></text><text x="160.26" y="-111.88" dominant-baseline="ideographic" fill="#1f2937" font-size="13" font-family="sans" text-anchor="middle"><tspan x="160.26" dy="13">C₂</tspan></text><text x="196.26" y="-106.48" dominant-baseline="central" fill="#1f2937" font-size="13" font-family="sans" text-anchor="middle"><tspan x="196.26" dy="13">v<tspan baseline-shift="-2" font-size="smaller">o</tspan></tspan></text><circle cx="43.2" cy="-46.8" r="2.7" style="stroke:#1f2937;fill:#1f2937;stroke-width:1.15;stroke-dasharray:-;" /><circle cx="135.06" cy="-71.88" r="2.7" style="stroke:#1f2937;fill:#1f2937;stroke-width:1.15;stroke-dasharray:-;" /></svg>