<svg style="max-width:480px;width:100%;height:auto;display:block;margin:1em auto;background:#fff;padding:10px;border:1px solid #e5e7eb;border-radius:6px" xmlns="http://www.w3.org/2000/svg" xmlns:xlink="http://www.w3.org/1999/xlink" xml:lang="en" viewBox="-26.200000000000003 -151.50000000000003 210.32299999999998 207.82"><path d="M 18.0,-122.39999999999999 L 81,-122.4 L 144,-122.4" style="stroke:#1f2937;fill:none;stroke-width:1.15;stroke-dasharray:-;stroke-linecap:round;stroke-linejoin:round;" /><path d="M 86.39999999999999,-46.800000000000004 L 99.6,-46.8" style="stroke:#1f2937;fill:none;stroke-width:1.15;stroke-dasharray:-;stroke-linecap:round;stroke-linejoin:round;" /><path d="M 99.6,-60.0 L 99.6,-33.6" style="stroke:#1f2937;fill:none;stroke-width:1.15;stroke-dasharray:-;stroke-linecap:round;stroke-linejoin:round;" /><path d="M 99.6,-53.400000000000006 L 113.46,-65.28 L 113.46,-71.88" style="stroke:#1f2937;fill:none;stroke-width:1.15;stroke-dasharray:-;stroke-linecap:round;stroke-linejoin:round;" /><path d="M 99.6,-40.2 L 113.46,-28.32 L 113.46,-21.72" style="stroke:#1f2937;fill:none;stroke-width:1.15;stroke-dasharray:-;stroke-linecap:round;stroke-linejoin:round;" /><path d="M 99.6,-40.2 L 106.627,-34.177" style="stroke:#1f2937;fill:none;stroke-width:1.15;stroke-dasharray:-;stroke-linecap:round;stroke-linejoin:round;" /><path d="M 111.941 -29.622 L 104.284 -31.444 L 108.97 -36.91 Z" style="stroke:#1f2937;fill:#1f2937;stroke-linecap:butt;stroke-linejoin:miter;" /><path d="M 113.46,-71.88 L 113.46,-97.14 L 113.46,-122.4" style="stroke:#1f2937;fill:none;stroke-width:1.15;stroke-dasharray:-;stroke-linecap:round;stroke-linejoin:round;" /><path d="M 21.599999999999994,-46.800000000000004 L 21.6,-66.6 L 12.6,-69.6 L 30.6,-75.6 L 12.6,-81.6 L 30.6,-87.6 L 12.6,-93.6 L 30.6,-99.6 L 21.6,-102.6 L 21.6,-122.4" style="stroke:#1f2937;fill:none;stroke-width:1.15;stroke-dasharray:-;stroke-linecap:round;stroke-linejoin:round;" /><path d="M 86.39999999999999,-46.800000000000004 L 54,-46.8 L 21.6,-46.8" style="stroke:#1f2937;fill:none;stroke-width:1.15;stroke-dasharray:-;stroke-linecap:round;stroke-linejoin:round;" /><path d="M 21.599999999999994,-46.800000000000004 L 3.24,-46.8 M 3.24,-37.8 L 3.24,-55.8 M -3.24,-37.8 L -3.24,-55.8 M -3.24,-46.8 L -21.6,-46.8" style="stroke:#1f2937;fill:none;stroke-width:1.15;stroke-dasharray:-;stroke-linecap:round;stroke-linejoin:round;" /><path d="M 21.599999999999994,-46.800000000000004 L 10.8,-46.8 L -0,-46.8" style="stroke:#1f2937;fill:none;stroke-width:1.15;stroke-dasharray:-;stroke-linecap:round;stroke-linejoin:round;" /><path d="M 113.46,-21.720000000000002 L 113.46,-14.52 L 122.46,-11.52 L 104.46,-5.52 L 122.46,0.48 L 104.46,6.48 L 122.46,12.48 L 104.46,18.48 L 113.46,21.48 L 113.46,28.68" style="stroke:#1f2937;fill:none;stroke-width:1.15;stroke-dasharray:-;stroke-linecap:round;stroke-linejoin:round;" /><path d="M 113.45999999999998,28.679999999999996 L 113.46,43.08 L 104.46,43.08 L 122.46,43.08 M 107.16,47.4 L 119.76,47.4 M 111.66,51.72 L 115.26,51.72" style="stroke:#1f2937;fill:none;stroke-width:1.15;stroke-dasharray:-;stroke-linecap:round;stroke-linejoin:round;" /><path d="M 113.46,-21.720000000000002 L 133.62,-21.72 M 133.62,-30.72 L 133.62,-12.72 M 140.1,-30.72 L 140.1,-12.72 M 140.1,-21.72 L 160.26,-21.72" style="stroke:#1f2937;fill:none;stroke-width:1.15;stroke-dasharray:-;stroke-linecap:round;stroke-linejoin:round;" /><text x="97.2" y="-153.4" dominant-baseline="central" fill="#1f2937" font-size="13" font-family="sans" text-anchor="middle"><tspan x="97.2" dy="13">+VCC</tspan></text><text x="8.999999999999998" y="-97.6" dominant-baseline="central" fill="#1f2937" font-size="13" font-family="sans" text-anchor="end"><tspan x="8.999999999999998" dy="13">R<tspan baseline-shift="-2" font-size="smaller">b</tspan></tspan></text><text x="-3.9968028886505635e-15" y="-72.4" dominant-baseline="ideographic" fill="#1f2937" font-size="13" font-family="sans" text-anchor="middle"><tspan x="-3.9968028886505635e-15" dy="13">C₁</tspan></text><text x="-14.400000000000007" y="-59.800000000000004" dominant-baseline="central" fill="#1f2937" font-size="13" font-family="sans" text-anchor="middle"><tspan x="-14.400000000000007" dy="13">v<tspan baseline-shift="-2" font-size="smaller">i</tspan></tspan></text><text x="100.85999999999999" y="-9.520000000000007" dominant-baseline="central" fill="#1f2937" font-size="13" font-family="sans" text-anchor="end"><tspan x="100.85999999999999" dy="13">R<tspan baseline-shift="-2" font-size="smaller">e</tspan></tspan></text><text x="136.85999999999999" y="-47.32" dominant-baseline="ideographic" fill="#1f2937" font-size="13" font-family="sans" text-anchor="middle"><tspan x="136.85999999999999" dy="13">C₂</tspan></text><text x="171.05999999999997" y="-41.92" dominant-baseline="central" fill="#1f2937" font-size="13" font-family="sans" text-anchor="middle"><tspan x="171.05999999999997" dy="13">v<tspan baseline-shift="-2" font-size="smaller">o</tspan></tspan></text><circle cx="113.46" cy="-122.4" r="2.7" style="stroke:#1f2937;fill:#1f2937;stroke-width:1.15;stroke-dasharray:-;" /></svg>