<svg style="max-width:480px;width:100%;height:auto;display:block;margin:1em auto;background:#fff;padding:10px;border:1px solid #e5e7eb;border-radius:6px" xmlns="http://www.w3.org/2000/svg" xmlns:xlink="http://www.w3.org/1999/xlink" xml:lang="en" viewBox="-0.06099999999998795 -73.0 227.86628634059943 151.94"><path d="M 90.0,-0.0 L 90,-45 L 167.942,-0 L 90,45 L 90,-0 M 167.942,-0" style="stroke:#1f2937;fill:none;stroke-width:1.15;stroke-dasharray:-;stroke-linecap:round;stroke-linejoin:round;" /><path d="M 96.14278579257493,-22.5 L 103.343,-22.5" style="stroke:#1f2937;fill:none;stroke-width:1.15;stroke-dasharray:-;stroke-linecap:round;stroke-linejoin:round;" /><path d="M 96.14278579257493,22.5 L 103.343,22.5" style="stroke:#1f2937;fill:none;stroke-width:1.15;stroke-dasharray:-;stroke-linecap:round;stroke-linejoin:round;" /><path d="M 99.74278579257494,26.099999999999998 L 99.743,18.9" style="stroke:#1f2937;fill:none;stroke-width:1.15;stroke-dasharray:-;stroke-linecap:round;stroke-linejoin:round;" /><path d="M 90.0,22.5 L 90,36.9 L 90,51.3" style="stroke:#1f2937;fill:none;stroke-width:1.15;stroke-dasharray:-;stroke-linecap:round;stroke-linejoin:round;" /><path d="M 90.0,51.300000000000004 L 90,65.7 L 81,65.7 L 99,65.7 M 83.7,70.02 L 96.3,70.02 M 88.2,74.34 L 91.8,74.34" style="stroke:#1f2937;fill:none;stroke-width:1.15;stroke-dasharray:-;stroke-linecap:round;stroke-linejoin:round;" /><path d="M 90.0,-22.5 L 81,-22.5 L 72,-22.5" style="stroke:#1f2937;fill:none;stroke-width:1.15;stroke-dasharray:-;stroke-linecap:round;stroke-linejoin:round;" /><path d="M 72.0,-22.500000000000004 L 63,-22.5 L 60,-13.5 L 54,-31.5 L 48,-13.5 L 42,-31.5 L 36,-13.5 L 30,-31.5 L 27,-22.5 L 18,-22.5" style="stroke:#1f2937;fill:none;stroke-width:1.15;stroke-dasharray:-;stroke-linecap:round;stroke-linejoin:round;" /><path d="M 72.0,-22.500000000000004 L 59.4,-22.5 L 46.8,-22.5" style="stroke:#1f2937;fill:none;stroke-width:1.15;stroke-dasharray:-;stroke-linecap:round;stroke-linejoin:round;" /><path d="M 90.0,-22.5 L 90,-44.1 L 90,-65.7" style="stroke:#1f2937;fill:none;stroke-width:1.15;stroke-dasharray:-;stroke-linecap:round;stroke-linejoin:round;" /><path d="M 90.0,-65.7 L 128.971,-65.7 L 167.942,-65.7" style="stroke:#1f2937;fill:none;stroke-width:1.15;stroke-dasharray:-;stroke-linecap:round;stroke-linejoin:round;" /><path d="M 167.94228634059948,-65.7 L 167.942,-50.85 L 176.942,-47.85 L 158.942,-41.85 L 176.942,-35.85 L 158.942,-29.85 L 176.942,-23.85 L 158.942,-17.85 L 167.942,-14.85 L 167.942,0" style="stroke:#1f2937;fill:none;stroke-width:1.15;stroke-dasharray:-;stroke-linecap:round;stroke-linejoin:round;" /><path d="M 167.94228634059948,-0.0 L 187.742,-0 L 207.542,-0" style="stroke:#1f2937;fill:none;stroke-width:1.15;stroke-dasharray:-;stroke-linecap:round;stroke-linejoin:round;" /><text x="45.0" y="-48.10000000000001" dominant-baseline="ideographic" fill="#1f2937" font-size="13" font-family="sans" text-anchor="middle"><tspan x="45.0" dy="13">R₁</tspan></text><text x="36.0" y="-35.5" dominant-baseline="central" fill="#1f2937" font-size="13" font-family="sans" text-anchor="middle"><tspan x="36.0" dy="13">v<tspan baseline-shift="-2" font-size="smaller">i</tspan></tspan></text><text x="155.34228634059946" y="-45.85" dominant-baseline="central" fill="#1f2937" font-size="13" font-family="sans" text-anchor="end"><tspan x="155.34228634059946" dy="13">R<tspan baseline-shift="-2" font-size="smaller">f</tspan></tspan></text><text x="214.74228634059946" y="-20.2" dominant-baseline="central" fill="#1f2937" font-size="13" font-family="sans" text-anchor="middle"><tspan x="214.74228634059946" dy="13">v<tspan baseline-shift="-2" font-size="smaller">o</tspan></tspan></text><text x="39.6" y="48.199999999999996" dominant-baseline="central" fill="#1f2937" font-size="13" font-family="sans" text-anchor="middle"><tspan x="39.6" dy="13">A<tspan baseline-shift="-2" font-size="smaller">v</tspan>=-R<tspan baseline-shift="-2" font-size="smaller">f</tspan>/R₁</tspan></text><circle cx="90" cy="-65.7" r="2.7" style="stroke:#1f2937;fill:#1f2937;stroke-width:1.15;stroke-dasharray:-;" /><circle cx="167.942" cy="-0" r="2.7" style="stroke:#1f2937;fill:#1f2937;stroke-width:1.15;stroke-dasharray:-;" /></svg>