<svg style="max-width:480px;width:100%;height:auto;display:block;margin:1em auto;background:#fff;padding:10px;border:1px solid #e5e7eb;border-radius:6px" xmlns="http://www.w3.org/2000/svg" xmlns:xlink="http://www.w3.org/1999/xlink" xml:lang="en" viewBox="-5.130999999999985 -73.0 232.93628634059942 145.3"><path d="M 90.0,-0.0 L 90,-45 L 167.942,-0 L 90,45 L 90,-0 M 167.942,-0" style="stroke:#1f2937;fill:none;stroke-width:1.15;stroke-dasharray:-;stroke-linecap:round;stroke-linejoin:round;" /><path d="M 96.14278579257493,-22.5 L 103.343,-22.5" style="stroke:#1f2937;fill:none;stroke-width:1.15;stroke-dasharray:-;stroke-linecap:round;stroke-linejoin:round;" /><path d="M 96.14278579257493,22.5 L 103.343,22.5" style="stroke:#1f2937;fill:none;stroke-width:1.15;stroke-dasharray:-;stroke-linecap:round;stroke-linejoin:round;" /><path d="M 99.74278579257494,26.099999999999998 L 99.743,18.9" style="stroke:#1f2937;fill:none;stroke-width:1.15;stroke-dasharray:-;stroke-linecap:round;stroke-linejoin:round;" /><path d="M 90.0,22.5 L 72,22.5 L 54,22.5" style="stroke:#1f2937;fill:none;stroke-width:1.15;stroke-dasharray:-;stroke-linecap:round;stroke-linejoin:round;" /><path d="M 90.0,-22.5 L 90,-17.1 L 99,-14.1 L 81,-8.1 L 99,-2.1 L 81,3.9 L 99,9.9 L 81,15.9 L 90,18.9 L 90,24.3" style="stroke:#1f2937;fill:none;stroke-width:1.15;stroke-dasharray:-;stroke-linecap:round;stroke-linejoin:round;" /><path d="M 89.99999999999999,24.299999999999994 L 90,38.7 L 81,38.7 L 99,38.7 M 83.7,43.02 L 96.3,43.02 M 88.2,47.34 L 91.8,47.34" style="stroke:#1f2937;fill:none;stroke-width:1.15;stroke-dasharray:-;stroke-linecap:round;stroke-linejoin:round;" /><path d="M 90.0,-22.5 L 90,-44.1 L 90,-65.7" style="stroke:#1f2937;fill:none;stroke-width:1.15;stroke-dasharray:-;stroke-linecap:round;stroke-linejoin:round;" /><path d="M 90.0,-65.7 L 128.971,-65.7 L 167.942,-65.7" style="stroke:#1f2937;fill:none;stroke-width:1.15;stroke-dasharray:-;stroke-linecap:round;stroke-linejoin:round;" /><path d="M 167.94228634059948,-65.7 L 167.942,-50.85 L 176.942,-47.85 L 158.942,-41.85 L 176.942,-35.85 L 158.942,-29.85 L 176.942,-23.85 L 158.942,-17.85 L 167.942,-14.85 L 167.942,0" style="stroke:#1f2937;fill:none;stroke-width:1.15;stroke-dasharray:-;stroke-linecap:round;stroke-linejoin:round;" /><path d="M 167.94228634059948,-0.0 L 187.742,-0 L 207.542,-0" style="stroke:#1f2937;fill:none;stroke-width:1.15;stroke-dasharray:-;stroke-linecap:round;stroke-linejoin:round;" /><text x="43.199999999999996" y="9.5" dominant-baseline="central" fill="#1f2937" font-size="13" font-family="sans" text-anchor="middle"><tspan x="43.199999999999996" dy="13">v<tspan baseline-shift="-2" font-size="smaller">i</tspan></tspan></text><text x="77.39999999999999" y="-12.100000000000007" dominant-baseline="central" fill="#1f2937" font-size="13" font-family="sans" text-anchor="end"><tspan x="77.39999999999999" dy="13">R₁</tspan></text><text x="155.34228634059946" y="-45.85" dominant-baseline="central" fill="#1f2937" font-size="13" font-family="sans" text-anchor="end"><tspan x="155.34228634059946" dy="13">R<tspan baseline-shift="-2" font-size="smaller">f</tspan></tspan></text><text x="214.74228634059946" y="-20.2" dominant-baseline="central" fill="#1f2937" font-size="13" font-family="sans" text-anchor="middle"><tspan x="214.74228634059946" dy="13">v<tspan baseline-shift="-2" font-size="smaller">o</tspan></tspan></text><text x="39.6" y="48.199999999999996" dominant-baseline="central" fill="#1f2937" font-size="13" font-family="sans" text-anchor="middle"><tspan x="39.6" dy="13">A<tspan baseline-shift="-2" font-size="smaller">v</tspan>=1+R<tspan baseline-shift="-2" font-size="smaller">f</tspan>/R₁</tspan></text><circle cx="90" cy="-65.7" r="2.7" style="stroke:#1f2937;fill:#1f2937;stroke-width:1.15;stroke-dasharray:-;" /><circle cx="167.942" cy="-0" r="2.7" style="stroke:#1f2937;fill:#1f2937;stroke-width:1.15;stroke-dasharray:-;" /></svg>