<svg style="max-width:480px;width:100%;height:auto;display:block;margin:1em auto;background:#fff;padding:10px;border:1px solid #e5e7eb;border-radius:6px" xmlns="http://www.w3.org/2000/svg" xmlns:xlink="http://www.w3.org/1999/xlink" xml:lang="en" viewBox="-167.87199999999996 -133.5 371.7439999999999 292.20000000000005"><polygon points="41.4,-11.7 50.4,-24.3 59.4,-11.7 " style="stroke:#1f2937;fill:none;stroke-width:1.15;stroke-dasharray:-;stroke-linecap:round;stroke-linejoin:round;" /><polygon points="41.4,-47.7 50.4,-60.3 59.4,-47.7 " style="stroke:#1f2937;fill:none;stroke-width:1.15;stroke-dasharray:-;stroke-linecap:round;stroke-linejoin:round;" /><path d="M 28.8,-108.0 L 79.2,-108 L 129.6,-108" style="stroke:#1f2937;fill:none;stroke-width:1.15;stroke-dasharray:-;stroke-linecap:round;stroke-linejoin:round;" /><path d="M 28.8,108.0 L 79.2,108 L 129.6,108" style="stroke:#1f2937;fill:none;stroke-width:1.15;stroke-dasharray:-;stroke-linecap:round;stroke-linejoin:round;" /><path d="M 50.4,-0.0 L 34.2,-0 L 18,-0" style="stroke:#1f2937;fill:none;stroke-width:1.15;stroke-dasharray:-;stroke-linecap:round;stroke-linejoin:round;" /><path d="M 50.4,-0.0 L 50.4,-11.7 M 41.4,-24.3 L 59.4,-24.3 M 50.4,-24.3 L 50.4,-36" style="stroke:#1f2937;fill:none;stroke-width:1.15;stroke-dasharray:-;stroke-linecap:round;stroke-linejoin:round;" /><path d="M 50.4,-36.0 L 50.4,-47.7 M 41.4,-60.3 L 59.4,-60.3 M 50.4,-60.3 L 50.4,-72" style="stroke:#1f2937;fill:none;stroke-width:1.15;stroke-dasharray:-;stroke-linecap:round;stroke-linejoin:round;" /><path d="M 93.60000000000001,-43.199999999999996 L 93.6,-56.4" style="stroke:#1f2937;fill:none;stroke-width:1.15;stroke-dasharray:-;stroke-linecap:round;stroke-linejoin:round;" /><path d="M 80.4,-56.4 L 106.8,-56.4" style="stroke:#1f2937;fill:none;stroke-width:1.15;stroke-dasharray:-;stroke-linecap:round;stroke-linejoin:round;" /><path d="M 87.00000000000001,-56.4 L 75.12,-70.26 L 68.52,-70.26" style="stroke:#1f2937;fill:none;stroke-width:1.15;stroke-dasharray:-;stroke-linecap:round;stroke-linejoin:round;" /><path d="M 100.19999999999999,-56.4 L 112.08,-70.26 L 118.68,-70.26" style="stroke:#1f2937;fill:none;stroke-width:1.15;stroke-dasharray:-;stroke-linecap:round;stroke-linejoin:round;" /><path d="M 100.19999999999999,-56.4 L 106.223,-63.427" style="stroke:#1f2937;fill:none;stroke-width:1.15;stroke-dasharray:-;stroke-linecap:round;stroke-linejoin:round;" /><path d="M 110.778 -68.741 L 108.956 -61.084 L 103.49 -65.77 Z" style="stroke:#1f2937;fill:#1f2937;stroke-linecap:butt;stroke-linejoin:miter;" /><path d="M 50.4,-72.0 L 72,-57.6 L 93.6,-43.2" style="stroke:#1f2937;fill:none;stroke-width:1.15;stroke-dasharray:-;stroke-linecap:round;stroke-linejoin:round;" /><path d="M 68.52,-70.26 L 68.52,-89.13 L 68.52,-108" style="stroke:#1f2937;fill:none;stroke-width:1.15;stroke-dasharray:-;stroke-linecap:round;stroke-linejoin:round;" /><path d="M 93.60000000000001,57.599999999999994 L 93.6,44.4" style="stroke:#1f2937;fill:none;stroke-width:1.15;stroke-dasharray:-;stroke-linecap:round;stroke-linejoin:round;" /><path d="M 80.4,44.39999999999999 L 106.8,44.4" style="stroke:#1f2937;fill:none;stroke-width:1.15;stroke-dasharray:-;stroke-linecap:round;stroke-linejoin:round;" /><path d="M 87.00000000000001,44.39999999999999 L 75.12,30.54 L 68.52,30.54" style="stroke:#1f2937;fill:none;stroke-width:1.15;stroke-dasharray:-;stroke-linecap:round;stroke-linejoin:round;" /><path d="M 100.19999999999999,44.39999999999999 L 112.08,30.54 L 118.68,30.54" style="stroke:#1f2937;fill:none;stroke-width:1.15;stroke-dasharray:-;stroke-linecap:round;stroke-linejoin:round;" /><path d="M 75.12,30.54 L 81.143,37.567" style="stroke:#1f2937;fill:none;stroke-width:1.15;stroke-dasharray:-;stroke-linecap:round;stroke-linejoin:round;" /><path d="M 85.698 42.881 L 78.41 39.91 L 83.876 35.224 Z" style="stroke:#1f2937;fill:#1f2937;stroke-linecap:butt;stroke-linejoin:miter;" /><path d="M 50.4,-0.0 L 72,28.8 L 93.6,57.6" style="stroke:#1f2937;fill:none;stroke-width:1.15;stroke-dasharray:-;stroke-linecap:round;stroke-linejoin:round;" /><path d="M 118.68,30.54 L 118.68,69.27 L 118.68,108" style="stroke:#1f2937;fill:none;stroke-width:1.15;stroke-dasharray:-;stroke-linecap:round;stroke-linejoin:round;" /><path d="M 118.68,-70.26 L 93.6,-19.86 L 68.52,30.54" style="stroke:#1f2937;fill:none;stroke-width:1.15;stroke-dasharray:-;stroke-linecap:round;stroke-linejoin:round;" /><path d="M 118.68,-70.26 L 142.08,-70.26 L 165.48,-70.26" style="stroke:#1f2937;fill:none;stroke-width:1.15;stroke-dasharray:-;stroke-linecap:round;stroke-linejoin:round;" /><path d="M 165.48,-70.26 L 165.48,-61.26 L 174.48,-58.26 L 156.48,-52.26 L 174.48,-46.26 L 156.48,-40.26 L 174.48,-34.26 L 156.48,-28.26 L 165.48,-25.26 L 165.48,-16.26" style="stroke:#1f2937;fill:none;stroke-width:1.15;stroke-dasharray:-;stroke-linecap:round;stroke-linejoin:round;" /><path d="M 165.48,-16.259999999999998 L 165.48,-1.86 L 156.48,-1.86 L 174.48,-1.86 M 159.18,2.46 L 171.78,2.46 M 163.68,6.78 L 167.28,6.78" style="stroke:#1f2937;fill:none;stroke-width:1.15;stroke-dasharray:-;stroke-linecap:round;stroke-linejoin:round;" /><text x="18.0" y="-135.39999999999998" dominant-baseline="central" fill="#1f2937" font-size="13" font-family="sans" text-anchor="middle"><tspan x="18.0" dy="13">+V<tspan baseline-shift="-2" font-size="smaller">CC</tspan></tspan></text><text x="18.0" y="95.0" dominant-baseline="central" fill="#1f2937" font-size="13" font-family="sans" text-anchor="middle"><tspan x="18.0" dy="13">-V<tspan baseline-shift="-2" font-size="smaller">CC</tspan></tspan></text><text x="7.199999999999992" y="-13.0" dominant-baseline="central" fill="#1f2937" font-size="13" font-family="sans" text-anchor="middle"><tspan x="7.199999999999992" dy="13">v<tspan baseline-shift="-2" font-size="smaller">i</tspan></tspan></text><text x="37.800000000000004" y="-31.0" dominant-baseline="central" fill="#1f2937" font-size="13" font-family="sans" text-anchor="end"><tspan x="37.800000000000004" dy="13">D1</tspan></text><text x="37.800000000000004" y="-67.0" dominant-baseline="central" fill="#1f2937" font-size="13" font-family="sans" text-anchor="end"><tspan x="37.800000000000004" dy="13">D2</tspan></text><text x="152.88" y="-56.26" dominant-baseline="central" fill="#1f2937" font-size="13" font-family="sans" text-anchor="end"><tspan x="152.88" dy="13">R<tspan baseline-shift="-2" font-size="smaller">L</tspan></tspan></text><text x="136.68" y="-94.05999999999999" dominant-baseline="central" fill="#1f2937" font-size="13" font-family="sans" text-anchor="middle"><tspan x="136.68" dy="13">v<tspan baseline-shift="-2" font-size="smaller">o</tspan></tspan></text><text x="18.0" y="134.6" dominant-baseline="central" fill="#1f2937" font-size="13" font-family="sans" text-anchor="middle"><tspan x="18.0" dy="13">Class-AB complementary (D1/D2 remove crossover distortion)</tspan></text><circle cx="118.68" cy="-70.26" r="2.7" style="stroke:#1f2937;fill:#1f2937;stroke-width:1.15;stroke-dasharray:-;" /></svg>