<svg style="max-width:480px;width:100%;height:auto;display:block;margin:1em auto;background:#fff;padding:10px;border:1px solid #e5e7eb;border-radius:6px" xmlns="http://www.w3.org/2000/svg" xmlns:xlink="http://www.w3.org/1999/xlink" xml:lang="en" viewBox="-108.55899999999995 -126.30000000000001 335.1799999999999 205.8"><polygon points="138.6,-28.8 129.6,-16.2 120.6,-28.8 " style="stroke:#1f2937;fill:none;stroke-width:1.15;stroke-dasharray:-;stroke-linecap:round;stroke-linejoin:round;" /><path d="M 57.6,-86.39999999999999 L 70.8,-86.4" style="stroke:#1f2937;fill:none;stroke-width:1.15;stroke-dasharray:-;stroke-linecap:round;stroke-linejoin:round;" /><path d="M 70.80000000000001,-99.6 L 70.8,-73.2" style="stroke:#1f2937;fill:none;stroke-width:1.15;stroke-dasharray:-;stroke-linecap:round;stroke-linejoin:round;" /><path d="M 70.80000000000001,-92.99999999999999 L 84.66,-104.88 L 84.66,-111.48" style="stroke:#1f2937;fill:none;stroke-width:1.15;stroke-dasharray:-;stroke-linecap:round;stroke-linejoin:round;" /><path d="M 70.80000000000001,-79.80000000000001 L 84.66,-67.92 L 84.66,-61.32" style="stroke:#1f2937;fill:none;stroke-width:1.15;stroke-dasharray:-;stroke-linecap:round;stroke-linejoin:round;" /><path d="M 70.80000000000001,-79.80000000000001 L 77.827,-73.777" style="stroke:#1f2937;fill:none;stroke-width:1.15;stroke-dasharray:-;stroke-linecap:round;stroke-linejoin:round;" /><path d="M 83.141 -69.222 L 75.484 -71.044 L 80.17 -76.51 Z" style="stroke:#1f2937;fill:#1f2937;stroke-linecap:butt;stroke-linejoin:miter;" /><path d="M 0.0,-108.0 L 42.33,-108 L 84.66,-108" style="stroke:#1f2937;fill:none;stroke-width:1.15;stroke-dasharray:-;stroke-linecap:round;stroke-linejoin:round;" /><path d="M 84.66,-108.0 L 84.66,-109.74 L 84.66,-111.48" style="stroke:#1f2937;fill:none;stroke-width:1.15;stroke-dasharray:-;stroke-linecap:round;stroke-linejoin:round;" /><path d="M 84.66,-61.31999999999999 L 143.13,-61.32 L 201.6,-61.32" style="stroke:#1f2937;fill:none;stroke-width:1.15;stroke-dasharray:-;stroke-linecap:round;stroke-linejoin:round;" /><path d="M 129.6,-21.599999999999998 L 129.6,-66.6 L 207.542,-21.6 L 129.6,23.4 L 129.6,-21.6 M 207.542,-21.6" style="stroke:#1f2937;fill:none;stroke-width:1.15;stroke-dasharray:-;stroke-linecap:round;stroke-linejoin:round;" /><path d="M 135.74278579257492,-44.1 L 142.943,-44.1" style="stroke:#1f2937;fill:none;stroke-width:1.15;stroke-dasharray:-;stroke-linecap:round;stroke-linejoin:round;" /><path d="M 135.74278579257492,0.9000000000000008 L 142.943,0.9" style="stroke:#1f2937;fill:none;stroke-width:1.15;stroke-dasharray:-;stroke-linecap:round;stroke-linejoin:round;" /><path d="M 139.34278579257494,4.5 L 139.343,-2.7" style="stroke:#1f2937;fill:none;stroke-width:1.15;stroke-dasharray:-;stroke-linecap:round;stroke-linejoin:round;" /><path d="M 57.6,-86.39999999999999 L 207.542,-86.4 L 207.542,-21.6" style="stroke:#1f2937;fill:none;stroke-width:1.15;stroke-dasharray:-;stroke-linecap:round;stroke-linejoin:round;" /><path d="M 129.6,-44.1 L 129.6,-28.8 M 138.6,-16.2 L 120.6,-16.2 M 129.6,-16.2 L 129.6,-0.9" style="stroke:#1f2937;fill:none;stroke-width:1.15;stroke-dasharray:-;stroke-linecap:round;stroke-linejoin:round;" /><path d="M 138.6,-16.200000000000006 L 142.2,-12.6" style="stroke:#1f2937;fill:none;stroke-width:1.15;stroke-dasharray:-;stroke-linecap:round;stroke-linejoin:round;" /><path d="M 120.60000000000001,-16.200000000000006 L 117,-19.8" style="stroke:#1f2937;fill:none;stroke-width:1.15;stroke-dasharray:-;stroke-linecap:round;stroke-linejoin:round;" /><path d="M 129.6,-0.9000000000000048 L 129.6,13.5 L 120.6,13.5 L 138.6,13.5 M 123.3,17.82 L 135.9,17.82 M 127.8,22.14 L 131.4,22.14" style="stroke:#1f2937;fill:none;stroke-width:1.15;stroke-dasharray:-;stroke-linecap:round;stroke-linejoin:round;" /><path d="M 129.6,-44.1 L 126,-44.1 L 123,-35.1 L 117,-53.1 L 111,-35.1 L 105,-53.1 L 99,-35.1 L 93,-53.1 L 90,-44.1 L 86.4,-44.1" style="stroke:#1f2937;fill:none;stroke-width:1.15;stroke-dasharray:-;stroke-linecap:round;stroke-linejoin:round;" /><path d="M 129.6,-44.1 L 129.6,-76.05 L 129.6,-108" style="stroke:#1f2937;fill:none;stroke-width:1.15;stroke-dasharray:-;stroke-linecap:round;stroke-linejoin:round;" /><path d="M 172.79999999999998,-61.31999999999999 L 172.8,-30.21 L 172.8,0.9" style="stroke:#1f2937;fill:none;stroke-width:1.15;stroke-dasharray:-;stroke-linecap:round;stroke-linejoin:round;" /><path d="M 172.79999999999998,-24.299999999999997 L 181.8,-21.3 L 163.8,-15.3 L 181.8,-9.3 L 163.8,-3.3 L 181.8,2.7 L 163.8,8.7 L 172.8,11.7" style="stroke:#1f2937;fill:none;stroke-width:1.15;stroke-dasharray:-;stroke-linecap:round;stroke-linejoin:round;" /><path d="M 172.79999999999998,0.9000000000000008 L 151.2,0.9 L 129.6,0.9" style="stroke:#1f2937;fill:none;stroke-width:1.15;stroke-dasharray:-;stroke-linecap:round;stroke-linejoin:round;" /><path d="M 172.79999999999998,0.9000000000000008 L 181.8,3.9 L 163.8,9.9 L 181.8,15.9 L 163.8,21.9 L 181.8,27.9 L 163.8,33.9 L 172.8,36.9" style="stroke:#1f2937;fill:none;stroke-width:1.15;stroke-dasharray:-;stroke-linecap:round;stroke-linejoin:round;" /><path d="M 172.79999999999998,36.9 L 172.8,51.3 L 163.8,51.3 L 181.8,51.3 M 166.5,55.62 L 179.1,55.62 M 171,59.94 L 174.6,59.94" style="stroke:#1f2937;fill:none;stroke-width:1.15;stroke-dasharray:-;stroke-linecap:round;stroke-linejoin:round;" /><text x="-32.4" y="-128.2" dominant-baseline="central" fill="#1f2937" font-size="13" font-family="sans" text-anchor="middle"><tspan x="-32.4" dy="13">+U<tspan baseline-shift="-2" font-size="smaller">i</tspan></tspan></text><text x="208.79999999999995" y="-81.52" dominant-baseline="central" fill="#1f2937" font-size="13" font-family="sans" text-anchor="middle"><tspan x="208.79999999999995" dy="13">+U<tspan baseline-shift="-2" font-size="smaller">o</tspan></tspan></text><text x="113.39999999999999" y="-35.50000000000001" dominant-baseline="central" fill="#1f2937" font-size="13" font-family="sans" text-anchor="end"><tspan x="113.39999999999999" dy="13">D<tspan baseline-shift="-2" font-size="smaller">Z</tspan></tspan></text><text x="108.0" y="-69.7" dominant-baseline="ideographic" fill="#1f2937" font-size="13" font-family="sans" text-anchor="middle"><tspan x="108.0" dy="13">R₃</tspan></text><text x="160.2" y="-19.3" dominant-baseline="central" fill="#1f2937" font-size="13" font-family="sans" text-anchor="end"><tspan x="160.2" dy="13">R₁</tspan></text><text x="160.2" y="5.899999999999999" dominant-baseline="central" fill="#1f2937" font-size="13" font-family="sans" text-anchor="end"><tspan x="160.2" dy="13">R₂</tspan></text><text x="39.6" y="55.400000000000006" dominant-baseline="central" fill="#1f2937" font-size="13" font-family="sans" text-anchor="middle"><tspan x="39.6" dy="13">Sample + Ref + Amp + Pass  (voltage-series NFB)</tspan></text><circle cx="0" cy="-108" r="2.7" style="stroke:#1f2937;fill:#1f2937;stroke-width:1.15;stroke-dasharray:-;" /><circle cx="129.6" cy="-108" r="2.7" style="stroke:#1f2937;fill:#1f2937;stroke-width:1.15;stroke-dasharray:-;" /><circle cx="172.8" cy="0.9" r="2.7" style="stroke:#1f2937;fill:#1f2937;stroke-width:1.15;stroke-dasharray:-;" /></svg>