<svg style="max-width:480px;width:100%;height:auto;display:block;margin:1em auto;background:#fff;padding:10px;border:1px solid #e5e7eb;border-radius:6px" xmlns="http://www.w3.org/2000/svg" xmlns:xlink="http://www.w3.org/1999/xlink" xml:lang="en" viewBox="-52.95999999999999 -87.80000000000001 316.7652863405994 210.5"><path d="M 129.6,-0.0 L 129.6,-45 L 207.542,-0 L 129.6,45 L 129.6,-0 M 207.542,-0" style="stroke:#1f2937;fill:none;stroke-width:1.15;stroke-dasharray:-;stroke-linecap:round;stroke-linejoin:round;" /><path d="M 135.74278579257492,-22.5 L 142.943,-22.5" style="stroke:#1f2937;fill:none;stroke-width:1.15;stroke-dasharray:-;stroke-linecap:round;stroke-linejoin:round;" /><path d="M 135.74278579257492,22.5 L 142.943,22.5" style="stroke:#1f2937;fill:none;stroke-width:1.15;stroke-dasharray:-;stroke-linecap:round;stroke-linejoin:round;" /><path d="M 139.34278579257494,26.099999999999998 L 139.343,18.9" style="stroke:#1f2937;fill:none;stroke-width:1.15;stroke-dasharray:-;stroke-linecap:round;stroke-linejoin:round;" /><path d="M 207.5422863405995,-0.0 L 225.542,-0 L 243.542,-0" style="stroke:#1f2937;fill:none;stroke-width:1.15;stroke-dasharray:-;stroke-linecap:round;stroke-linejoin:round;" /><path d="M 207.5422863405995,-0.0 L 207.542,-28.8 L 207.542,-57.6" style="stroke:#1f2937;fill:none;stroke-width:1.15;stroke-dasharray:-;stroke-linecap:round;stroke-linejoin:round;" /><path d="M 207.5422863405995,-57.6 L 200.342,-57.6 L 197.342,-48.6 L 191.342,-66.6 L 185.342,-48.6 L 179.342,-66.6 L 173.342,-48.6 L 167.342,-66.6 L 164.342,-57.6 L 157.142,-57.6" style="stroke:#1f2937;fill:none;stroke-width:1.15;stroke-dasharray:-;stroke-linecap:round;stroke-linejoin:round;" /><path d="M 207.5422863405995,-57.6 L 185.582,-57.6 M 185.582,-48.6 L 185.582,-66.6 M 179.102,-48.6 L 179.102,-66.6 M 179.102,-57.6 L 157.142,-57.6" style="stroke:#1f2937;fill:none;stroke-width:1.15;stroke-dasharray:-;stroke-linecap:round;stroke-linejoin:round;" /><path d="M 207.5422863405995,-57.6 L 207.542,-50.4 L 216.542,-47.4 L 198.542,-41.4 L 216.542,-35.4 L 198.542,-29.4 L 216.542,-23.4 L 198.542,-17.4 L 207.542,-14.4 L 207.542,-7.2" style="stroke:#1f2937;fill:none;stroke-width:1.15;stroke-dasharray:-;stroke-linecap:round;stroke-linejoin:round;" /><path d="M 207.5422863405995,-7.200000000000006 L 207.542,7.56 M 216.542,7.56 L 198.542,7.56 M 216.542,14.04 L 198.542,14.04 M 207.542,14.04 L 207.542,28.8" style="stroke:#1f2937;fill:none;stroke-width:1.15;stroke-dasharray:-;stroke-linecap:round;stroke-linejoin:round;" /><path d="M 207.5422863405995,28.799999999999994 L 207.542,43.2 L 198.542,43.2 L 216.542,43.2 M 201.242,47.52 L 213.842,47.52 M 205.742,51.84 L 209.342,51.84" style="stroke:#1f2937;fill:none;stroke-width:1.15;stroke-dasharray:-;stroke-linecap:round;stroke-linejoin:round;" /><path d="M 129.6,22.5 L 207.542,22.5 L 207.542,-57.6" style="stroke:#1f2937;fill:none;stroke-width:1.15;stroke-dasharray:-;stroke-linecap:round;stroke-linejoin:round;" /><path d="M 207.5422863405995,-0.0 L 207.542,28.8 L 207.542,57.6" style="stroke:#1f2937;fill:none;stroke-width:1.15;stroke-dasharray:-;stroke-linecap:round;stroke-linejoin:round;" /><path d="M 207.5422863405995,57.6 L 200.342,57.6 L 197.342,66.6 L 191.342,48.6 L 185.342,66.6 L 179.342,48.6 L 173.342,66.6 L 167.342,48.6 L 164.342,57.6 L 157.142,57.6" style="stroke:#1f2937;fill:none;stroke-width:1.15;stroke-dasharray:-;stroke-linecap:round;stroke-linejoin:round;" /><path d="M 207.5422863405995,57.6 L 200.342,57.6 L 197.342,66.6 L 191.342,48.6 L 185.342,66.6 L 179.342,48.6 L 173.342,66.6 L 167.342,48.6 L 164.342,57.6 L 157.142,57.6" style="stroke:#1f2937;fill:none;stroke-width:1.15;stroke-dasharray:-;stroke-linecap:round;stroke-linejoin:round;" /><path d="M 207.5422863405995,57.6 L 207.542,72 L 198.542,72 L 216.542,72 M 201.242,76.32 L 213.842,76.32 M 205.742,80.64 L 209.342,80.64" style="stroke:#1f2937;fill:none;stroke-width:1.15;stroke-dasharray:-;stroke-linecap:round;stroke-linejoin:round;" /><path d="M 129.6,-22.5 L 207.542,-22.5 L 207.542,57.6" style="stroke:#1f2937;fill:none;stroke-width:1.15;stroke-dasharray:-;stroke-linecap:round;stroke-linejoin:round;" /><text x="250.74228634059946" y="-20.2" dominant-baseline="central" fill="#1f2937" font-size="13" font-family="sans" text-anchor="middle"><tspan x="250.74228634059946" dy="13">v<tspan baseline-shift="-2" font-size="smaller">o</tspan></tspan></text><text x="182.3422863405995" y="-83.2" dominant-baseline="ideographic" fill="#1f2937" font-size="13" font-family="sans" text-anchor="middle"><tspan x="182.3422863405995" dy="13">R</tspan></text><text x="182.3422863405995" y="-83.2" dominant-baseline="ideographic" fill="#1f2937" font-size="13" font-family="sans" text-anchor="middle"><tspan x="182.3422863405995" dy="13">C</tspan></text><text x="194.9422863405995" y="-45.400000000000006" dominant-baseline="central" fill="#1f2937" font-size="13" font-family="sans" text-anchor="end"><tspan x="194.9422863405995" dy="13">R</tspan></text><text x="194.9422863405995" y="-2.200000000000008" dominant-baseline="central" fill="#1f2937" font-size="13" font-family="sans" text-anchor="end"><tspan x="194.9422863405995" dy="13">C</tspan></text><text x="182.3422863405995" y="32.0" dominant-baseline="ideographic" fill="#1f2937" font-size="13" font-family="sans" text-anchor="middle"><tspan x="182.3422863405995" dy="13">R<tspan baseline-shift="-2" font-size="smaller">f</tspan></tspan></text><text x="182.3422863405995" y="32.0" dominant-baseline="ideographic" fill="#1f2937" font-size="13" font-family="sans" text-anchor="middle"><tspan x="182.3422863405995" dy="13">R₁</tspan></text><text x="46.800000000000004" y="98.60000000000001" dominant-baseline="central" fill="#1f2937" font-size="13" font-family="sans" text-anchor="middle"><tspan x="46.800000000000004" dy="13">f₀=\frac{1}{2π RC}  start: R<tspan baseline-shift="-2" font-size="smaller">f</tspan>&gt;2R₁</tspan></text><circle cx="207.542" cy="-0" r="2.7" style="stroke:#1f2937;fill:#1f2937;stroke-width:1.15;stroke-dasharray:-;" /><circle cx="207.542" cy="-57.6" r="2.7" style="stroke:#1f2937;fill:#1f2937;stroke-width:1.15;stroke-dasharray:-;" /><circle cx="207.542" cy="57.6" r="2.7" style="stroke:#1f2937;fill:#1f2937;stroke-width:1.15;stroke-dasharray:-;" /></svg>