<svg style="max-width:480px;width:100%;height:auto;display:block;margin:1em auto;background:#fff;padding:10px;border:1px solid #e5e7eb;border-radius:6px" xmlns="http://www.w3.org/2000/svg" xmlns:xlink="http://www.w3.org/1999/xlink" xml:lang="en" viewBox="-47.959 -108.30000000000001 205.559 121.54000000000002"><polygon points="95.4,-49.5 86.4,-36.9 77.4,-49.5 " style="stroke:#1f2937;fill:none;stroke-width:1.15;stroke-dasharray:-;stroke-linecap:round;stroke-linejoin:round;" /><path d="M 0.0,-72.0 L 14.4,-72 L 28.8,-72" style="stroke:#1f2937;fill:none;stroke-width:1.15;stroke-dasharray:-;stroke-linecap:round;stroke-linejoin:round;" /><path d="M 28.8,-72.0 L 39.6,-72 L 42.6,-81 L 48.6,-63 L 54.6,-81 L 60.6,-63 L 66.6,-81 L 72.6,-63 L 75.6,-72 L 86.4,-72" style="stroke:#1f2937;fill:none;stroke-width:1.15;stroke-dasharray:-;stroke-linecap:round;stroke-linejoin:round;" /><path d="M 86.4,-72.0 L 86.4,-49.5 M 95.4,-36.9 L 77.4,-36.9 M 86.4,-36.9 L 86.4,-14.4" style="stroke:#1f2937;fill:none;stroke-width:1.15;stroke-dasharray:-;stroke-linecap:round;stroke-linejoin:round;" /><path d="M 95.4,-36.9 L 99,-33.3" style="stroke:#1f2937;fill:none;stroke-width:1.15;stroke-dasharray:-;stroke-linecap:round;stroke-linejoin:round;" /><path d="M 77.4,-36.9 L 73.8,-40.5" style="stroke:#1f2937;fill:none;stroke-width:1.15;stroke-dasharray:-;stroke-linecap:round;stroke-linejoin:round;" /><path d="M 86.4,-72.0 L 115.2,-72 L 144,-72" style="stroke:#1f2937;fill:none;stroke-width:1.15;stroke-dasharray:-;stroke-linecap:round;stroke-linejoin:round;" /><path d="M 144.0,-72.0 L 144,-61.2 L 153,-58.2 L 135,-52.2 L 153,-46.2 L 135,-40.2 L 153,-34.2 L 135,-28.2 L 144,-25.2 L 144,-14.4" style="stroke:#1f2937;fill:none;stroke-width:1.15;stroke-dasharray:-;stroke-linecap:round;stroke-linejoin:round;" /><path d="M 86.39999999999999,-14.399999999999997 L 115.2,-14.4 L 144,-14.4" style="stroke:#1f2937;fill:none;stroke-width:1.15;stroke-dasharray:-;stroke-linecap:round;stroke-linejoin:round;" /><path d="M 115.2,-14.399999999999997 L 115.2,0 L 106.2,0 L 124.2,0 M 108.9,4.32 L 121.5,4.32 M 113.4,8.64 L 117,8.64" style="stroke:#1f2937;fill:none;stroke-width:1.15;stroke-dasharray:-;stroke-linecap:round;stroke-linejoin:round;" /><text x="-32.4" y="-92.2" dominant-baseline="central" fill="#1f2937" font-size="13" font-family="sans" text-anchor="middle"><tspan x="-32.4" dy="13">+U<tspan baseline-shift="-2" font-size="smaller">i</tspan></tspan></text><text x="57.6" y="-97.60000000000001" dominant-baseline="ideographic" fill="#1f2937" font-size="13" font-family="sans" text-anchor="middle"><tspan x="57.6" dy="13">R</tspan></text><text x="100.80000000000001" y="-110.2" dominant-baseline="central" fill="#1f2937" font-size="13" font-family="sans" text-anchor="middle"><tspan x="100.80000000000001" dy="13">+U<tspan baseline-shift="-2" font-size="smaller">o</tspan></tspan></text><text x="70.2" y="-56.2" dominant-baseline="central" fill="#1f2937" font-size="13" font-family="sans" text-anchor="end"><tspan x="70.2" dy="13">D<tspan baseline-shift="-2" font-size="smaller">Z</tspan></tspan></text><text x="131.4" y="-56.2" dominant-baseline="central" fill="#1f2937" font-size="13" font-family="sans" text-anchor="end"><tspan x="131.4" dy="13">R<tspan baseline-shift="-2" font-size="smaller">L</tspan></tspan></text><circle cx="0" cy="-72" r="2.7" style="stroke:#1f2937;fill:#1f2937;stroke-width:1.15;stroke-dasharray:-;" /><circle cx="86.4" cy="-72" r="2.7" style="stroke:#1f2937;fill:#1f2937;stroke-width:1.15;stroke-dasharray:-;" /></svg>