<svg style="max-width:480px;width:100%;height:auto;display:block;margin:1em auto;background:#fff;padding:10px;border:1px solid #e5e7eb;border-radius:6px" xmlns="http://www.w3.org/2000/svg" xmlns:xlink="http://www.w3.org/1999/xlink" xml:lang="en" viewBox="-48.568 -101.10000000000002 217.739 138.10000000000002"><path d="M 12.6,-32.75999999999999 L 30.6,-32.76 L 31.114,-32.767 L 31.629,-32.789 L 32.143,-32.826 L 32.657,-32.878 L 33.171,-32.944 L 33.686,-33.024 L 34.2,-33.12 L 34.714,-33.23 L 35.229,-33.355 L 35.743,-33.495 L 36.257,-33.649 L 36.771,-33.818 L 37.286,-34.002 L 37.8,-34.2 L 38.314,-34.413 L 38.829,-34.641 L 39.343,-34.883 L 39.857,-35.14 L 40.371,-35.412 L 40.886,-35.699 L 41.4,-36 L 41.914,-36.316 L 42.429,-36.647 L 42.943,-36.992 L 43.457,-37.352 L 43.971,-37.727 L 44.486,-38.116 L 45,-38.52 L 45.514,-38.939 L 46.029,-39.372 L 46.543,-39.82 L 47.057,-40.283 L 47.571,-40.761 L 48.086,-41.253 L 48.6,-41.76 L 49.114,-42.282 L 49.629,-42.818 L 50.143,-43.369 L 50.657,-43.935 L 51.171,-44.515 L 51.686,-45.11 L 52.2,-45.72 L 52.714,-46.344 L 53.229,-46.984 L 53.743,-47.638 L 54.257,-48.306 L 54.771,-48.989 L 55.286,-49.687 L 55.8,-50.4 L 55.8,-50.4 L 55.286,-51.113 L 54.771,-51.811 L 54.257,-52.494 L 53.743,-53.162 L 53.229,-53.816 L 52.714,-54.456 L 52.2,-55.08 L 51.686,-55.69 L 51.171,-56.285 L 50.657,-56.865 L 50.143,-57.431 L 49.629,-57.982 L 49.114,-58.518 L 48.6,-59.04 L 48.086,-59.547 L 47.571,-60.039 L 47.057,-60.517 L 46.543,-60.98 L 46.029,-61.428 L 45.514,-61.861 L 45,-62.28 L 44.486,-62.684 L 43.971,-63.073 L 43.457,-63.448 L 42.943,-63.808 L 42.429,-64.153 L 41.914,-64.484 L 41.4,-64.8 L 40.886,-65.101 L 40.371,-65.388 L 39.857,-65.66 L 39.343,-65.917 L 38.829,-66.159 L 38.314,-66.387 L 37.8,-66.6 L 37.286,-66.798 L 36.771,-66.982 L 36.257,-67.151 L 35.743,-67.305 L 35.229,-67.445 L 34.714,-67.57 L 34.2,-67.68 L 33.686,-67.776 L 33.171,-67.856 L 32.657,-67.922 L 32.143,-67.974 L 31.629,-68.011 L 31.114,-68.033 L 30.6,-68.04 L 12.6,-68.04 L 12.6,-68.04 L 13.291,-67.32 L 13.954,-66.6 L 14.587,-65.88 L 15.192,-65.16 L 15.768,-64.44 L 16.315,-63.72 L 16.834,-63 L 17.323,-62.28 L 17.784,-61.56 L 18.216,-60.84 L 18.619,-60.12 L 18.994,-59.4 L 19.339,-58.68 L 19.656,-57.96 L 19.944,-57.24 L 20.203,-56.52 L 20.434,-55.8 L 20.635,-55.08 L 20.808,-54.36 L 20.952,-53.64 L 21.067,-52.92 L 21.154,-52.2 L 21.211,-51.48 L 21.24,-50.76 L 21.24,-50.04 L 21.211,-49.32 L 21.154,-48.6 L 21.067,-47.88 L 20.952,-47.16 L 20.808,-46.44 L 20.635,-45.72 L 20.434,-45 L 20.203,-44.28 L 19.944,-43.56 L 19.656,-42.84 L 19.339,-42.12 L 18.994,-41.4 L 18.619,-40.68 L 18.216,-39.96 L 17.784,-39.24 L 17.323,-38.52 L 16.834,-37.8 L 16.315,-37.08 L 15.768,-36.36 L 15.192,-35.64 L 14.587,-34.92 L 13.954,-34.2 L 13.291,-33.48 L 12.6,-32.76" style="stroke:#1f2937;fill:none;stroke-width:1.15;stroke-dasharray:-;stroke-linecap:round;stroke-linejoin:round;" /><path d="M 7.199999999999999,-32.75999999999999 L 7.891,-33.48 L 8.554,-34.2 L 9.187,-34.92 L 9.792,-35.64 L 10.368,-36.36 L 10.915,-37.08 L 11.434,-37.8 L 11.923,-38.52 L 12.384,-39.24 L 12.816,-39.96 L 13.219,-40.68 L 13.594,-41.4 L 13.939,-42.12 L 14.256,-42.84 L 14.544,-43.56 L 14.803,-44.28 L 15.034,-45 L 15.235,-45.72 L 15.408,-46.44 L 15.552,-47.16 L 15.667,-47.88 L 15.754,-48.6 L 15.811,-49.32 L 15.84,-50.04 L 15.84,-50.76 L 15.811,-51.48 L 15.754,-52.2 L 15.667,-52.92 L 15.552,-53.64 L 15.408,-54.36 L 15.235,-55.08 L 15.034,-55.8 L 14.803,-56.52 L 14.544,-57.24 L 14.256,-57.96 L 13.939,-58.68 L 13.594,-59.4 L 13.219,-60.12 L 12.816,-60.84 L 12.384,-61.56 L 11.923,-62.28 L 11.434,-63 L 10.915,-63.72 L 10.368,-64.44 L 9.792,-65.16 L 9.187,-65.88 L 8.554,-66.6 L 7.891,-67.32 L 7.2,-68.04" style="stroke:#1f2937;fill:none;stroke-width:1.15;stroke-dasharray:-;stroke-linecap:round;stroke-linejoin:round;" /><path d="M 0.0,-41.4 L 13.594,-41.4" style="stroke:#1f2937;fill:none;stroke-width:1.15;stroke-dasharray:-;stroke-linecap:round;stroke-linejoin:round;" /><path d="M 0.0,-59.4 L 13.594,-59.4" style="stroke:#1f2937;fill:none;stroke-width:1.15;stroke-dasharray:-;stroke-linecap:round;stroke-linejoin:round;" /><path d="M 55.80000000000001,-50.4 L 68.4,-50.4" style="stroke:#1f2937;fill:none;stroke-width:1.15;stroke-dasharray:-;stroke-linecap:round;stroke-linejoin:round;" /><path d="M 0.0,-59.4 L -14.4,-59.4 L -28.8,-59.4" style="stroke:#1f2937;fill:none;stroke-width:1.15;stroke-dasharray:-;stroke-linecap:round;stroke-linejoin:round;" /><path d="M 0.0,-41.4 L -14.4,-41.4 L -28.8,-41.4" style="stroke:#1f2937;fill:none;stroke-width:1.15;stroke-dasharray:-;stroke-linecap:round;stroke-linejoin:round;" /><path d="M 106.2,-68.04 L 88.2,-68.04 L 87.686,-68.033 L 87.171,-68.011 L 86.657,-67.974 L 86.143,-67.922 L 85.629,-67.856 L 85.114,-67.776 L 84.6,-67.68 L 84.086,-67.57 L 83.571,-67.445 L 83.057,-67.305 L 82.543,-67.151 L 82.029,-66.982 L 81.514,-66.798 L 81,-66.6 L 80.486,-66.387 L 79.971,-66.159 L 79.457,-65.917 L 78.943,-65.66 L 78.429,-65.388 L 77.914,-65.101 L 77.4,-64.8 L 76.886,-64.484 L 76.371,-64.153 L 75.857,-63.808 L 75.343,-63.448 L 74.829,-63.073 L 74.314,-62.684 L 73.8,-62.28 L 73.286,-61.861 L 72.771,-61.428 L 72.257,-60.98 L 71.743,-60.517 L 71.229,-60.039 L 70.714,-59.547 L 70.2,-59.04 L 69.686,-58.518 L 69.171,-57.982 L 68.657,-57.431 L 68.143,-56.865 L 67.629,-56.285 L 67.114,-55.69 L 66.6,-55.08 L 66.086,-54.456 L 65.571,-53.816 L 65.057,-53.162 L 64.543,-52.494 L 64.029,-51.811 L 63.514,-51.113 L 63,-50.4 L 63,-50.4 L 63.514,-49.687 L 64.029,-48.989 L 64.543,-48.306 L 65.057,-47.638 L 65.571,-46.984 L 66.086,-46.344 L 66.6,-45.72 L 67.114,-45.11 L 67.629,-44.515 L 68.143,-43.935 L 68.657,-43.369 L 69.171,-42.818 L 69.686,-42.282 L 70.2,-41.76 L 70.714,-41.253 L 71.229,-40.761 L 71.743,-40.283 L 72.257,-39.82 L 72.771,-39.372 L 73.286,-38.939 L 73.8,-38.52 L 74.314,-38.116 L 74.829,-37.727 L 75.343,-37.352 L 75.857,-36.992 L 76.371,-36.647 L 76.886,-36.316 L 77.4,-36 L 77.914,-35.699 L 78.429,-35.412 L 78.943,-35.14 L 79.457,-34.883 L 79.971,-34.641 L 80.486,-34.413 L 81,-34.2 L 81.514,-34.002 L 82.029,-33.818 L 82.543,-33.649 L 83.057,-33.495 L 83.571,-33.355 L 84.086,-33.23 L 84.6,-33.12 L 85.114,-33.024 L 85.629,-32.944 L 86.143,-32.878 L 86.657,-32.826 L 87.171,-32.789 L 87.686,-32.767 L 88.2,-32.76 L 106.2,-32.76 L 106.2,-32.76 L 105.509,-33.48 L 104.846,-34.2 L 104.213,-34.92 L 103.608,-35.64 L 103.032,-36.36 L 102.485,-37.08 L 101.966,-37.8 L 101.477,-38.52 L 101.016,-39.24 L 100.584,-39.96 L 100.181,-40.68 L 99.806,-41.4 L 99.461,-42.12 L 99.144,-42.84 L 98.856,-43.56 L 98.597,-44.28 L 98.366,-45 L 98.165,-45.72 L 97.992,-46.44 L 97.848,-47.16 L 97.733,-47.88 L 97.646,-48.6 L 97.589,-49.32 L 97.56,-50.04 L 97.56,-50.76 L 97.589,-51.48 L 97.646,-52.2 L 97.733,-52.92 L 97.848,-53.64 L 97.992,-54.36 L 98.165,-55.08 L 98.366,-55.8 L 98.597,-56.52 L 98.856,-57.24 L 99.144,-57.96 L 99.461,-58.68 L 99.806,-59.4 L 100.181,-60.12 L 100.584,-60.84 L 101.016,-61.56 L 101.477,-62.28 L 101.966,-63 L 102.485,-63.72 L 103.032,-64.44 L 103.608,-65.16 L 104.213,-65.88 L 104.846,-66.6 L 105.509,-67.32 L 106.2,-68.04" style="stroke:#1f2937;fill:none;stroke-width:1.15;stroke-dasharray:-;stroke-linecap:round;stroke-linejoin:round;" /><path d="M 111.60000000000002,-68.04 L 110.909,-67.32 L 110.246,-66.6 L 109.613,-65.88 L 109.008,-65.16 L 108.432,-64.44 L 107.885,-63.72 L 107.366,-63 L 106.877,-62.28 L 106.416,-61.56 L 105.984,-60.84 L 105.581,-60.12 L 105.206,-59.4 L 104.861,-58.68 L 104.544,-57.96 L 104.256,-57.24 L 103.997,-56.52 L 103.766,-55.8 L 103.565,-55.08 L 103.392,-54.36 L 103.248,-53.64 L 103.133,-52.92 L 103.046,-52.2 L 102.989,-51.48 L 102.96,-50.76 L 102.96,-50.04 L 102.989,-49.32 L 103.046,-48.6 L 103.133,-47.88 L 103.248,-47.16 L 103.392,-46.44 L 103.565,-45.72 L 103.766,-45 L 103.997,-44.28 L 104.256,-43.56 L 104.544,-42.84 L 104.861,-42.12 L 105.206,-41.4 L 105.581,-40.68 L 105.984,-39.96 L 106.416,-39.24 L 106.877,-38.52 L 107.366,-37.8 L 107.885,-37.08 L 108.432,-36.36 L 109.008,-35.64 L 109.613,-34.92 L 110.246,-34.2 L 110.909,-33.48 L 111.6,-32.76" style="stroke:#1f2937;fill:none;stroke-width:1.15;stroke-dasharray:-;stroke-linecap:round;stroke-linejoin:round;" /><path d="M 118.80000000000001,-59.4 L 105.206,-59.4" style="stroke:#1f2937;fill:none;stroke-width:1.15;stroke-dasharray:-;stroke-linecap:round;stroke-linejoin:round;" /><path d="M 118.80000000000001,-41.4 L 105.206,-41.4" style="stroke:#1f2937;fill:none;stroke-width:1.15;stroke-dasharray:-;stroke-linecap:round;stroke-linejoin:round;" /><path d="M 63.0,-50.400000000000006 L 50.4,-50.4" style="stroke:#1f2937;fill:none;stroke-width:1.15;stroke-dasharray:-;stroke-linecap:round;stroke-linejoin:round;" /><path d="M 68.4,-50.4 L 93.6,-45.9 L 118.8,-41.4" style="stroke:#1f2937;fill:none;stroke-width:1.15;stroke-dasharray:-;stroke-linecap:round;stroke-linejoin:round;" /><path d="M 118.80000000000001,-59.4 L 93.6,-59.4 L 68.4,-59.4" style="stroke:#1f2937;fill:none;stroke-width:1.15;stroke-dasharray:-;stroke-linecap:round;stroke-linejoin:round;" /><path d="M 50.4,-50.400000000000006 L 64.8,-50.4 L 79.2,-50.4" style="stroke:#1f2937;fill:none;stroke-width:1.15;stroke-dasharray:-;stroke-linecap:round;stroke-linejoin:round;" /><path d="M 36.0,32.4 L 37.153,32.363 L 38.302,32.252 L 39.441,32.068 L 40.566,31.811 L 41.672,31.483 L 42.755,31.085 L 43.81,30.617 L 44.833,30.084 L 45.82,29.486 L 46.766,28.825 L 47.668,28.106 L 48.522,27.33 L 49.325,26.501 L 50.073,25.623 L 50.763,24.698 L 51.393,23.731 L 51.959,22.726 L 52.459,21.686 L 52.892,20.617 L 53.256,19.521 L 53.549,18.405 L 53.769,17.273 L 53.917,16.128 L 53.991,14.977 L 53.991,13.823 L 53.917,12.672 L 53.769,11.527 L 53.549,10.395 L 53.256,9.279 L 52.892,8.183 L 52.459,7.114 L 51.959,6.074 L 51.393,5.069 L 50.763,4.102 L 50.073,3.177 L 49.325,2.299 L 48.522,1.47 L 47.668,0.694 L 46.766,-0.025 L 45.82,-0.686 L 44.833,-1.284 L 43.81,-1.817 L 42.755,-2.285 L 41.672,-2.683 L 40.566,-3.011 L 39.441,-3.268 L 38.302,-3.452 L 37.153,-3.563 L 36,-3.6 L 36,-3.6 L 12.6,-3.6 L 12.6,14.4 L 12.6,32.4 L 36,32.4" style="stroke:#1f2937;fill:none;stroke-width:1.15;stroke-dasharray:-;stroke-linecap:round;stroke-linejoin:round;" /><path d="M 0.0,23.400000000000002 L 12.6,23.4" style="stroke:#1f2937;fill:none;stroke-width:1.15;stroke-dasharray:-;stroke-linecap:round;stroke-linejoin:round;" /><path d="M 0.0,5.4 L 12.6,5.4" style="stroke:#1f2937;fill:none;stroke-width:1.15;stroke-dasharray:-;stroke-linecap:round;stroke-linejoin:round;" /><path d="M 54.0,14.4 L 66.6,14.4" style="stroke:#1f2937;fill:none;stroke-width:1.15;stroke-dasharray:-;stroke-linecap:round;stroke-linejoin:round;" /><path d="M 0.0,5.4 L 0,5.4 L 0,-59.4" style="stroke:#1f2937;fill:none;stroke-width:1.15;stroke-dasharray:-;stroke-linecap:round;stroke-linejoin:round;" /><path d="M 0.0,23.400000000000002 L 0,23.4 L 0,-41.4" style="stroke:#1f2937;fill:none;stroke-width:1.15;stroke-dasharray:-;stroke-linecap:round;stroke-linejoin:round;" /><path d="M 93.60000000000002,-21.599999999999998 L 93.563,-22.753 L 93.452,-23.902 L 93.268,-25.041 L 93.011,-26.166 L 92.683,-27.272 L 92.285,-28.355 L 91.817,-29.41 L 91.284,-30.433 L 90.686,-31.42 L 90.025,-32.366 L 89.306,-33.268 L 88.53,-34.122 L 87.701,-34.925 L 86.823,-35.673 L 85.898,-36.363 L 84.931,-36.993 L 83.926,-37.559 L 82.886,-38.059 L 81.817,-38.492 L 80.721,-38.856 L 79.605,-39.149 L 78.473,-39.369 L 77.328,-39.517 L 76.177,-39.591 L 75.023,-39.591 L 73.872,-39.517 L 72.727,-39.369 L 71.595,-39.149 L 70.479,-38.856 L 69.383,-38.492 L 68.314,-38.059 L 67.274,-37.559 L 66.269,-36.993 L 65.302,-36.363 L 64.377,-35.673 L 63.499,-34.925 L 62.67,-34.122 L 61.894,-33.268 L 61.175,-32.366 L 60.514,-31.42 L 59.916,-30.433 L 59.383,-29.41 L 58.915,-28.355 L 58.517,-27.272 L 58.189,-26.166 L 57.932,-25.041 L 57.748,-23.902 L 57.637,-22.753 L 57.6,-21.6 L 57.6,-21.6 L 57.6,1.8 L 75.6,1.8 L 93.6,1.8 L 93.6,-21.6" style="stroke:#1f2937;fill:none;stroke-width:1.15;stroke-dasharray:-;stroke-linecap:round;stroke-linejoin:round;" /><path d="M 84.60000000000002,14.4 L 84.6,1.8" style="stroke:#1f2937;fill:none;stroke-width:1.15;stroke-dasharray:-;stroke-linecap:round;stroke-linejoin:round;" /><path d="M 66.60000000000002,14.4 L 66.6,1.8" style="stroke:#1f2937;fill:none;stroke-width:1.15;stroke-dasharray:-;stroke-linecap:round;stroke-linejoin:round;" /><path d="M 75.60000000000002,-39.6 L 75.6,-52.2" style="stroke:#1f2937;fill:none;stroke-width:1.15;stroke-dasharray:-;stroke-linecap:round;stroke-linejoin:round;" /><path d="M 66.60000000000002,14.4 L 68.4,14.4 L 68.4,-50.4" style="stroke:#1f2937;fill:none;stroke-width:1.15;stroke-dasharray:-;stroke-linecap:round;stroke-linejoin:round;" /><path d="M 84.60000000000002,14.4 L 118.8,14.4 L 118.8,-59.4" style="stroke:#1f2937;fill:none;stroke-width:1.15;stroke-dasharray:-;stroke-linecap:round;stroke-linejoin:round;" /><path d="M 131.04000000000002,-27.0 L 131.04,-45 L 131.033,-45.514 L 131.011,-46.029 L 130.974,-46.543 L 130.922,-47.057 L 130.856,-47.571 L 130.776,-48.086 L 130.68,-48.6 L 130.57,-49.114 L 130.445,-49.629 L 130.305,-50.143 L 130.151,-50.657 L 129.982,-51.171 L 129.798,-51.686 L 129.6,-52.2 L 129.387,-52.714 L 129.159,-53.229 L 128.917,-53.743 L 128.66,-54.257 L 128.388,-54.771 L 128.101,-55.286 L 127.8,-55.8 L 127.484,-56.314 L 127.153,-56.829 L 126.808,-57.343 L 126.448,-57.857 L 126.073,-58.371 L 125.684,-58.886 L 125.28,-59.4 L 124.861,-59.914 L 124.428,-60.429 L 123.98,-60.943 L 123.517,-61.457 L 123.039,-61.971 L 122.547,-62.486 L 122.04,-63 L 121.518,-63.514 L 120.982,-64.029 L 120.431,-64.543 L 119.865,-65.057 L 119.285,-65.571 L 118.69,-66.086 L 118.08,-66.6 L 117.456,-67.114 L 116.816,-67.629 L 116.162,-68.143 L 115.494,-68.657 L 114.811,-69.171 L 114.113,-69.686 L 113.4,-70.2 L 113.4,-70.2 L 112.687,-69.686 L 111.989,-69.171 L 111.306,-68.657 L 110.638,-68.143 L 109.984,-67.629 L 109.344,-67.114 L 108.72,-66.6 L 108.11,-66.086 L 107.515,-65.571 L 106.935,-65.057 L 106.369,-64.543 L 105.818,-64.029 L 105.282,-63.514 L 104.76,-63 L 104.253,-62.486 L 103.761,-61.971 L 103.283,-61.457 L 102.82,-60.943 L 102.372,-60.429 L 101.939,-59.914 L 101.52,-59.4 L 101.116,-58.886 L 100.727,-58.371 L 100.352,-57.857 L 99.992,-57.343 L 99.647,-56.829 L 99.316,-56.314 L 99,-55.8 L 98.699,-55.286 L 98.412,-54.771 L 98.14,-54.257 L 97.883,-53.743 L 97.641,-53.229 L 97.413,-52.714 L 97.2,-52.2 L 97.002,-51.686 L 96.818,-51.171 L 96.649,-50.657 L 96.495,-50.143 L 96.355,-49.629 L 96.23,-49.114 L 96.12,-48.6 L 96.024,-48.086 L 95.944,-47.571 L 95.878,-47.057 L 95.826,-46.543 L 95.789,-46.029 L 95.767,-45.514 L 95.76,-45 L 95.76,-27 L 95.76,-27 L 96.48,-27.691 L 97.2,-28.354 L 97.92,-28.987 L 98.64,-29.592 L 99.36,-30.168 L 100.08,-30.715 L 100.8,-31.234 L 101.52,-31.723 L 102.24,-32.184 L 102.96,-32.616 L 103.68,-33.019 L 104.4,-33.394 L 105.12,-33.739 L 105.84,-34.056 L 106.56,-34.344 L 107.28,-34.603 L 108,-34.834 L 108.72,-35.035 L 109.44,-35.208 L 110.16,-35.352 L 110.88,-35.467 L 111.6,-35.554 L 112.32,-35.611 L 113.04,-35.64 L 113.76,-35.64 L 114.48,-35.611 L 115.2,-35.554 L 115.92,-35.467 L 116.64,-35.352 L 117.36,-35.208 L 118.08,-35.035 L 118.8,-34.834 L 119.52,-34.603 L 120.24,-34.344 L 120.96,-34.056 L 121.68,-33.739 L 122.4,-33.394 L 123.12,-33.019 L 123.84,-32.616 L 124.56,-32.184 L 125.28,-31.723 L 126,-31.234 L 126.72,-30.715 L 127.44,-30.168 L 128.16,-29.592 L 128.88,-28.987 L 129.6,-28.354 L 130.32,-27.691 L 131.04,-27" style="stroke:#1f2937;fill:none;stroke-width:1.15;stroke-dasharray:-;stroke-linecap:round;stroke-linejoin:round;" /><path d="M 122.4,-14.4 L 122.4,-33.394" style="stroke:#1f2937;fill:none;stroke-width:1.15;stroke-dasharray:-;stroke-linecap:round;stroke-linejoin:round;" /><path d="M 104.4,-14.4 L 104.4,-33.394" style="stroke:#1f2937;fill:none;stroke-width:1.15;stroke-dasharray:-;stroke-linecap:round;stroke-linejoin:round;" /><path d="M 113.4,-70.2 L 113.4,-82.8" style="stroke:#1f2937;fill:none;stroke-width:1.15;stroke-dasharray:-;stroke-linecap:round;stroke-linejoin:round;" /><path d="M 104.4,-14.4 L 66.6,-14.4 L 66.6,14.4" style="stroke:#1f2937;fill:none;stroke-width:1.15;stroke-dasharray:-;stroke-linecap:round;stroke-linejoin:round;" /><path d="M 122.4,-14.4 L 75.6,-14.4 L 75.6,-52.2" style="stroke:#1f2937;fill:none;stroke-width:1.15;stroke-dasharray:-;stroke-linecap:round;stroke-linejoin:round;" /><path d="M 113.4,-82.80000000000001 L 127.8,-82.8 L 142.2,-82.8" style="stroke:#1f2937;fill:none;stroke-width:1.15;stroke-dasharray:-;stroke-linecap:round;stroke-linejoin:round;" /><text x="-39.6" y="-72.4" dominant-baseline="central" fill="#1f2937" font-size="13" font-family="sans" text-anchor="middle"><tspan x="-39.6" dy="13">A</tspan></text><text x="-39.6" y="-54.4" dominant-baseline="central" fill="#1f2937" font-size="13" font-family="sans" text-anchor="middle"><tspan x="-39.6" dy="13">B</tspan></text><text x="54.00000000000001" y="-72.4" dominant-baseline="central" fill="#1f2937" font-size="13" font-family="sans" text-anchor="middle"><tspan x="54.00000000000001" dy="13">C<tspan baseline-shift="-2" font-size="smaller">in</tspan></tspan></text><text x="86.39999999999999" y="-70.60000000000001" dominant-baseline="central" fill="#1f2937" font-size="13" font-family="sans" text-anchor="middle"><tspan x="86.39999999999999" dy="13">S</tspan></text><text x="149.4" y="-103.00000000000001" dominant-baseline="central" fill="#1f2937" font-size="13" font-family="sans" text-anchor="middle"><tspan x="149.4" dy="13">C<tspan baseline-shift="-2" font-size="smaller">out</tspan></tspan></text></svg>