<svg style="max-width:480px;width:100%;height:auto;display:block;margin:1em auto;background:#fff;padding:10px;border:1px solid #e5e7eb;border-radius:6px" xmlns="http://www.w3.org/2000/svg" xmlns:xlink="http://www.w3.org/1999/xlink" xml:lang="en" viewBox="-59.634999999999984 -198.29999999999998 321.09799999999996 328.20000000000005"><path d="M 36.0,36.0 L 162,36 L 162,-144 L 36,-144 L 36,36" style="stroke:#1f2937;fill:none;stroke-width:1.15;stroke-dasharray:-;stroke-linecap:round;stroke-linejoin:round;" /><path d="M 36.0,-0.0 L 0,-0" style="stroke:#1f2937;fill:none;stroke-width:1.15;stroke-dasharray:-;stroke-linecap:round;stroke-linejoin:round;" /><path d="M 36.0,-54.0 L 0,-54" style="stroke:#1f2937;fill:none;stroke-width:1.15;stroke-dasharray:-;stroke-linecap:round;stroke-linejoin:round;" /><path d="M 36.0,-108.0 L 0,-108" style="stroke:#1f2937;fill:none;stroke-width:1.15;stroke-dasharray:-;stroke-linecap:round;stroke-linejoin:round;" /><path d="M 162.0,-27.0 L 198,-27" style="stroke:#1f2937;fill:none;stroke-width:1.15;stroke-dasharray:-;stroke-linecap:round;stroke-linejoin:round;" /><path d="M 162.0,-81.0 L 198,-81" style="stroke:#1f2937;fill:none;stroke-width:1.15;stroke-dasharray:-;stroke-linecap:round;stroke-linejoin:round;" /><path d="M 72.0,-144.0 L 72,-180" style="stroke:#1f2937;fill:none;stroke-width:1.15;stroke-dasharray:-;stroke-linecap:round;stroke-linejoin:round;" /><path d="M 126.0,-144.0 L 126,-180" style="stroke:#1f2937;fill:none;stroke-width:1.15;stroke-dasharray:-;stroke-linecap:round;stroke-linejoin:round;" /><path d="M 99.0,36.0 L 99,72" style="stroke:#1f2937;fill:none;stroke-width:1.15;stroke-dasharray:-;stroke-linecap:round;stroke-linejoin:round;" /><path d="M 126.0,-180.0 L 126,-176.4 L 126,-172.8" style="stroke:#1f2937;fill:none;stroke-width:1.15;stroke-dasharray:-;stroke-linecap:round;stroke-linejoin:round;" /><path d="M 0.0,-172.79999999999998 L 63,-172.8 L 126,-172.8" style="stroke:#1f2937;fill:none;stroke-width:1.15;stroke-dasharray:-;stroke-linecap:round;stroke-linejoin:round;" /><path d="M 0.0,-172.79999999999998 L -0,-158.4 L 9,-155.4 L -9,-149.4 L 9,-143.4 L -9,-137.4 L 9,-131.4 L -9,-125.4 L -0,-122.4 L -0,-108" style="stroke:#1f2937;fill:none;stroke-width:1.15;stroke-dasharray:-;stroke-linecap:round;stroke-linejoin:round;" /><path d="M 0.0,-108.0 L -0,-95.4 L 9,-92.4 L -9,-86.4 L 9,-80.4 L -9,-74.4 L 9,-68.4 L -9,-62.4 L -0,-59.4 L -0,-46.8" style="stroke:#1f2937;fill:none;stroke-width:1.15;stroke-dasharray:-;stroke-linecap:round;stroke-linejoin:round;" /><path d="M 0.0,-46.800000000000004 L 0,-50.4 L 0,-54" style="stroke:#1f2937;fill:none;stroke-width:1.15;stroke-dasharray:-;stroke-linecap:round;stroke-linejoin:round;" /><path d="M 0.0,-54.0 L 0,-27 L 0,-0" style="stroke:#1f2937;fill:none;stroke-width:1.15;stroke-dasharray:-;stroke-linecap:round;stroke-linejoin:round;" /><path d="M 0.0,-0.0 L 0,-23.4 L 0,-46.8" style="stroke:#1f2937;fill:none;stroke-width:1.15;stroke-dasharray:-;stroke-linecap:round;stroke-linejoin:round;" /><path d="M 0.0,-46.800000000000004 L -0,-24.84 M 9,-24.84 L -9,-24.84 M 9,-18.36 L -9,-18.36 M -0,-18.36 L -0,3.6" style="stroke:#1f2937;fill:none;stroke-width:1.15;stroke-dasharray:-;stroke-linecap:round;stroke-linejoin:round;" /><path d="M -9.258329801553989e-15,3.599999999999995 L -0,18 L -9,18 L 9,18 M -6.3,22.32 L 6.3,22.32 M -1.8,26.64 L 1.8,26.64" style="stroke:#1f2937;fill:none;stroke-width:1.15;stroke-dasharray:-;stroke-linecap:round;stroke-linejoin:round;" /><path d="M 198.0,-81.0 L 219.6,-81 L 241.2,-81" style="stroke:#1f2937;fill:none;stroke-width:1.15;stroke-dasharray:-;stroke-linecap:round;stroke-linejoin:round;" /><path d="M 99.0,72.0 L 99,86.4 L 90,86.4 L 108,86.4 M 92.7,90.72 L 105.3,90.72 M 97.2,95.04 L 100.8,95.04" style="stroke:#1f2937;fill:none;stroke-width:1.15;stroke-dasharray:-;stroke-linecap:round;stroke-linejoin:round;" /><path d="M 198.0,-27.0 L 198,-8.64 M 207,-8.64 L 189,-8.64 M 207,-2.16 L 189,-2.16 M 198,-2.16 L 198,16.2" style="stroke:#1f2937;fill:none;stroke-width:1.15;stroke-dasharray:-;stroke-linecap:round;stroke-linejoin:round;" /><path d="M 198.0,16.2 L 198,30.6 L 189,30.6 L 207,30.6 M 191.7,34.92 L 204.3,34.92 M 196.2,39.24 L 199.8,39.24" style="stroke:#1f2937;fill:none;stroke-width:1.15;stroke-dasharray:-;stroke-linecap:round;stroke-linejoin:round;" /><text x="33.300000000000004" y="-13.7" dominant-baseline="ideographic" fill="#1f2937" font-size="11" font-family="sans" text-anchor="end"><tspan x="33.300000000000004" dy="11">2</tspan></text><text x="41.4" y="-14.0" dominant-baseline="central" fill="#1f2937" font-size="14" font-family="sans" text-anchor="start"><tspan x="41.4" dy="14">TRG</tspan></text><text x="33.300000000000004" y="-67.7" dominant-baseline="ideographic" fill="#1f2937" font-size="11" font-family="sans" text-anchor="end"><tspan x="33.300000000000004" dy="11">6</tspan></text><text x="41.4" y="-68.0" dominant-baseline="central" fill="#1f2937" font-size="14" font-family="sans" text-anchor="start"><tspan x="41.4" dy="14">THR</tspan></text><text x="33.300000000000004" y="-121.7" dominant-baseline="ideographic" fill="#1f2937" font-size="11" font-family="sans" text-anchor="end"><tspan x="33.300000000000004" dy="11">7</tspan></text><text x="41.4" y="-122.0" dominant-baseline="central" fill="#1f2937" font-size="14" font-family="sans" text-anchor="start"><tspan x="41.4" dy="14">DIS</tspan></text><text x="164.70000000000002" y="-40.7" dominant-baseline="ideographic" fill="#1f2937" font-size="11" font-family="sans" text-anchor="start"><tspan x="164.70000000000002" dy="11">5</tspan></text><text x="156.6" y="-41.0" dominant-baseline="central" fill="#1f2937" font-size="14" font-family="sans" text-anchor="end"><tspan x="156.6" dy="14">CTL</tspan></text><text x="164.70000000000002" y="-94.7" dominant-baseline="ideographic" fill="#1f2937" font-size="11" font-family="sans" text-anchor="start"><tspan x="164.70000000000002" dy="11">3</tspan></text><text x="156.6" y="-95.0" dominant-baseline="central" fill="#1f2937" font-size="14" font-family="sans" text-anchor="end"><tspan x="156.6" dy="14">OUT</tspan></text><text x="74.7" y="-157.70000000000002" dominant-baseline="ideographic" fill="#1f2937" font-size="11" font-family="sans" text-anchor="start"><tspan x="74.7" dy="11">4</tspan></text><text x="72.0" y="-152.6" dominant-baseline="hanging" fill="#1f2937" font-size="14" font-family="sans" text-anchor="middle"><tspan x="72.0" dy="14">RST</tspan></text><text x="128.70000000000002" y="-157.70000000000002" dominant-baseline="ideographic" fill="#1f2937" font-size="11" font-family="sans" text-anchor="start"><tspan x="128.70000000000002" dy="11">8</tspan></text><text x="126.0" y="-152.6" dominant-baseline="hanging" fill="#1f2937" font-size="14" font-family="sans" text-anchor="middle"><tspan x="126.0" dy="14">Vcc</tspan></text><text x="101.7" y="27.699999999999996" dominant-baseline="hanging" fill="#1f2937" font-size="11" font-family="sans" text-anchor="start"><tspan x="101.7" dy="11">1</tspan></text><text x="99.0" y="16.599999999999998" dominant-baseline="ideographic" fill="#1f2937" font-size="14" font-family="sans" text-anchor="middle"><tspan x="99.0" dy="14">GND</tspan></text><text x="102.60000000000001" y="-70.6" dominant-baseline="central" fill="#1f2937" font-size="13" font-family="sans" text-anchor="middle"><tspan x="102.60000000000001" dy="13">555</tspan></text><text x="144.0" y="-200.2" dominant-baseline="central" fill="#1f2937" font-size="13" font-family="sans" text-anchor="middle"><tspan x="144.0" dy="13">+VCC</tspan></text><text x="-12.600000000000005" y="-153.4" dominant-baseline="central" fill="#1f2937" font-size="13" font-family="sans" text-anchor="end"><tspan x="-12.600000000000005" dy="13">R<tspan baseline-shift="-2" font-size="smaller">A</tspan></tspan></text><text x="-12.600000000000005" y="-90.4" dominant-baseline="central" fill="#1f2937" font-size="13" font-family="sans" text-anchor="end"><tspan x="-12.600000000000005" dy="13">R<tspan baseline-shift="-2" font-size="smaller">B</tspan></tspan></text><text x="-12.600000000000003" y="-34.60000000000001" dominant-baseline="central" fill="#1f2937" font-size="13" font-family="sans" text-anchor="end"><tspan x="-12.600000000000003" dy="13">C</tspan></text><text x="248.39999999999998" y="-101.2" dominant-baseline="central" fill="#1f2937" font-size="13" font-family="sans" text-anchor="middle"><tspan x="248.39999999999998" dy="13">v<tspan baseline-shift="-2" font-size="smaller">o</tspan></tspan></text><text x="185.4" y="-18.400000000000006" dominant-baseline="central" fill="#1f2937" font-size="13" font-family="sans" text-anchor="end"><tspan x="185.4" dy="13">0.01uF</tspan></text><text x="21.599999999999998" y="105.80000000000001" dominant-baseline="central" fill="#1f2937" font-size="13" font-family="sans" text-anchor="middle"><tspan x="21.599999999999998" dy="13">T\approx 0.7(R<tspan baseline-shift="-2" font-size="smaller">A</tspan>+2R<tspan baseline-shift="-2" font-size="smaller">B</tspan>)C</tspan></text><circle cx="0" cy="-172.8" r="2.7" style="stroke:#1f2937;fill:#1f2937;stroke-width:1.15;stroke-dasharray:-;" /><circle cx="0" cy="-54" r="2.7" style="stroke:#1f2937;fill:#1f2937;stroke-width:1.15;stroke-dasharray:-;" /><circle cx="0" cy="-0" r="2.7" style="stroke:#1f2937;fill:#1f2937;stroke-width:1.15;stroke-dasharray:-;" /></svg>