<svg style="max-width:480px;width:100%;height:auto;display:block;margin:1em auto;background:#fff;padding:10px;border:1px solid #e5e7eb;border-radius:6px" xmlns="http://www.w3.org/2000/svg" xmlns:xlink="http://www.w3.org/1999/xlink" xml:lang="en" viewBox="-40.76800000000001 -163.73999999999995 193.736 251.13999999999993"><path d="M 0.0,-120.24 L 0,-105.24 L 15,-105.24 L 15,-75.24 L 0,-75.24 L 0,-60.24" style="stroke:#1f2937;fill:none;stroke-width:1.15;stroke-dasharray:-;stroke-linecap:round;stroke-linejoin:round;" /><path d="M 0.0,-105.24 L 6,-105.24" style="stroke:#1f2937;fill:none;stroke-width:1.15;stroke-dasharray:-;stroke-linecap:round;stroke-linejoin:round;" /><path d="M 13 -105.24 L 6 -100.74 L 6 -109.74 Z" style="stroke:#1f2937;fill:#1f2937;stroke-linecap:butt;stroke-linejoin:miter;" /><path d="M 17.999999999999996,-102.24 L 18,-78.24" style="stroke:#1f2937;fill:none;stroke-width:1.15;stroke-dasharray:-;stroke-linecap:round;stroke-linejoin:round;" /><path d="M 17.999999999999996,-102.24 L 33,-102.24" style="stroke:#1f2937;fill:none;stroke-width:1.15;stroke-dasharray:-;stroke-linecap:round;stroke-linejoin:round;" /><path d="M 72.0,-120.24 L 72,-105.24 L 87,-105.24 L 87,-75.24 L 72,-75.24 L 72,-60.24" style="stroke:#1f2937;fill:none;stroke-width:1.15;stroke-dasharray:-;stroke-linecap:round;stroke-linejoin:round;" /><path d="M 72.0,-105.24 L 78,-105.24" style="stroke:#1f2937;fill:none;stroke-width:1.15;stroke-dasharray:-;stroke-linecap:round;stroke-linejoin:round;" /><path d="M 85 -105.24 L 78 -100.74 L 78 -109.74 Z" style="stroke:#1f2937;fill:#1f2937;stroke-linecap:butt;stroke-linejoin:miter;" /><path d="M 90.0,-102.24 L 90,-78.24" style="stroke:#1f2937;fill:none;stroke-width:1.15;stroke-dasharray:-;stroke-linecap:round;stroke-linejoin:round;" /><path d="M 90.0,-102.24 L 105,-102.24" style="stroke:#1f2937;fill:none;stroke-width:1.15;stroke-dasharray:-;stroke-linecap:round;stroke-linejoin:round;" /><path d="M 0.0,-120.24 L 36,-120.24 L 72,-120.24" style="stroke:#1f2937;fill:none;stroke-width:1.15;stroke-dasharray:-;stroke-linecap:round;stroke-linejoin:round;" /><path d="M 36.0,-120.24 L 36,-134.64 L 36,-149.04" style="stroke:#1f2937;fill:none;stroke-width:1.15;stroke-dasharray:-;stroke-linecap:round;stroke-linejoin:round;" /><path d="M 0.0,-60.24 L 36,-60.24 L 72,-60.24" style="stroke:#1f2937;fill:none;stroke-width:1.15;stroke-dasharray:-;stroke-linecap:round;stroke-linejoin:round;" /><path d="M 72.0,-60.24 L 72,-45.24 L 87,-45.24 L 87,-15.24 L 72,-15.24 L 72,-0.24" style="stroke:#1f2937;fill:none;stroke-width:1.15;stroke-dasharray:-;stroke-linecap:round;stroke-linejoin:round;" /><path d="M 87.0,-15.24 L 81,-15.24" style="stroke:#1f2937;fill:none;stroke-width:1.15;stroke-dasharray:-;stroke-linecap:round;stroke-linejoin:round;" /><path d="M 74 -15.24 L 81 -19.74 L 81 -10.74 Z" style="stroke:#1f2937;fill:#1f2937;stroke-linecap:butt;stroke-linejoin:miter;" /><path d="M 90.0,-42.24 L 90,-18.24" style="stroke:#1f2937;fill:none;stroke-width:1.15;stroke-dasharray:-;stroke-linecap:round;stroke-linejoin:round;" /><path d="M 90.0,-18.24 L 105,-18.24" style="stroke:#1f2937;fill:none;stroke-width:1.15;stroke-dasharray:-;stroke-linecap:round;stroke-linejoin:round;" /><path d="M 72.0,-0.24000000000000554 L 72,14.76 L 87,14.76 L 87,44.76 L 72,44.76 L 72,59.76" style="stroke:#1f2937;fill:none;stroke-width:1.15;stroke-dasharray:-;stroke-linecap:round;stroke-linejoin:round;" /><path d="M 87.0,44.75999999999999 L 81,44.76" style="stroke:#1f2937;fill:none;stroke-width:1.15;stroke-dasharray:-;stroke-linecap:round;stroke-linejoin:round;" /><path d="M 74 44.76 L 81 40.26 L 81 49.26 Z" style="stroke:#1f2937;fill:#1f2937;stroke-linecap:butt;stroke-linejoin:miter;" /><path d="M 90.0,17.75999999999999 L 90,41.76" style="stroke:#1f2937;fill:none;stroke-width:1.15;stroke-dasharray:-;stroke-linecap:round;stroke-linejoin:round;" /><path d="M 90.0,41.76 L 105,41.76" style="stroke:#1f2937;fill:none;stroke-width:1.15;stroke-dasharray:-;stroke-linecap:round;stroke-linejoin:round;" /><path d="M 72.0,59.75999999999999 L 72,74.16 L 63,74.16 L 81,74.16 M 65.7,78.48 L 78.3,78.48 M 70.2,82.8 L 73.8,82.8" style="stroke:#1f2937;fill:none;stroke-width:1.15;stroke-dasharray:-;stroke-linecap:round;stroke-linejoin:round;" /><path d="M 32.99999999999999,-102.24 L 69,-60.24 L 105,-18.24" style="stroke:#1f2937;fill:none;stroke-width:1.15;stroke-dasharray:-;stroke-linecap:round;stroke-linejoin:round;" /><path d="M 32.99999999999999,-102.24 L 7.8,-102.24 L -17.4,-102.24" style="stroke:#1f2937;fill:none;stroke-width:1.15;stroke-dasharray:-;stroke-linecap:round;stroke-linejoin:round;" /><path d="M 105.0,-102.24 L 105,-30.24 L 105,41.76" style="stroke:#1f2937;fill:none;stroke-width:1.15;stroke-dasharray:-;stroke-linecap:round;stroke-linejoin:round;" /><path d="M 105.0,-102.24 L 90.6,-102.24 L 76.2,-102.24" style="stroke:#1f2937;fill:none;stroke-width:1.15;stroke-dasharray:-;stroke-linecap:round;stroke-linejoin:round;" /><path d="M 72.0,-60.24 L 104.4,-60.24 L 136.8,-60.24" style="stroke:#1f2937;fill:none;stroke-width:1.15;stroke-dasharray:-;stroke-linecap:round;stroke-linejoin:round;" /><text x="50.4" y="-165.64" dominant-baseline="central" fill="#1f2937" font-size="13" font-family="sans" text-anchor="middle"><tspan x="50.4" dy="13">+VDD</tspan></text><text x="-31.800000000000004" y="-115.24" dominant-baseline="central" fill="#1f2937" font-size="13" font-family="sans" text-anchor="middle"><tspan x="-31.800000000000004" dy="13">A</tspan></text><text x="61.79999999999999" y="-115.24" dominant-baseline="central" fill="#1f2937" font-size="13" font-family="sans" text-anchor="middle"><tspan x="61.79999999999999" dy="13">B</tspan></text><text x="144.0" y="-80.44000000000001" dominant-baseline="central" fill="#1f2937" font-size="13" font-family="sans" text-anchor="middle"><tspan x="144.0" dy="13">Y</tspan></text><text x="118.80000000000001" y="9.559999999999999" dominant-baseline="central" fill="#1f2937" font-size="13" font-family="sans" text-anchor="middle"><tspan x="118.80000000000001" dy="13">Y=<tspan text-decoration="overline">AB</tspan></tspan></text><circle cx="72" cy="-60.24" r="2.7" style="stroke:#1f2937;fill:#1f2937;stroke-width:1.15;stroke-dasharray:-;" /><circle cx="33" cy="-102.24" r="2.7" style="stroke:#1f2937;fill:#1f2937;stroke-width:1.15;stroke-dasharray:-;" /><circle cx="105" cy="-102.24" r="2.7" style="stroke:#1f2937;fill:#1f2937;stroke-width:1.15;stroke-dasharray:-;" /></svg>