<svg style="max-width:480px;width:100%;height:auto;display:block;margin:1em auto;background:#fff;padding:10px;border:1px solid #e5e7eb;border-radius:6px" xmlns="http://www.w3.org/2000/svg" xmlns:xlink="http://www.w3.org/1999/xlink" xml:lang="en" viewBox="-34.168 -83.1 292.586 198.59999999999997"><circle cx="76.32" cy="-57.6" r="4.32" style="stroke:#1f2937;fill:none;stroke-width:1.15;stroke-dasharray:-;" /><circle cx="76.32" cy="57.6" r="4.32" style="stroke:#1f2937;fill:none;stroke-width:1.15;stroke-dasharray:-;" /><path d="M 54.0,-39.6 L 55.153,-39.637 L 56.302,-39.748 L 57.441,-39.932 L 58.566,-40.189 L 59.672,-40.517 L 60.755,-40.915 L 61.81,-41.383 L 62.833,-41.916 L 63.82,-42.514 L 64.766,-43.175 L 65.668,-43.894 L 66.522,-44.67 L 67.325,-45.499 L 68.073,-46.377 L 68.763,-47.302 L 69.393,-48.269 L 69.959,-49.274 L 70.459,-50.314 L 70.892,-51.383 L 71.256,-52.479 L 71.549,-53.595 L 71.769,-54.727 L 71.917,-55.872 L 71.991,-57.023 L 71.991,-58.177 L 71.917,-59.328 L 71.769,-60.473 L 71.549,-61.605 L 71.256,-62.721 L 70.892,-63.817 L 70.459,-64.886 L 69.959,-65.926 L 69.393,-66.931 L 68.763,-67.898 L 68.073,-68.823 L 67.325,-69.701 L 66.522,-70.53 L 65.668,-71.306 L 64.766,-72.025 L 63.82,-72.686 L 62.833,-73.284 L 61.81,-73.817 L 60.755,-74.285 L 59.672,-74.683 L 58.566,-75.011 L 57.441,-75.268 L 56.302,-75.452 L 55.153,-75.563 L 54,-75.6 L 54,-75.6 L 30.6,-75.6 L 30.6,-57.6 L 30.6,-39.6 L 54,-39.6" style="stroke:#1f2937;fill:none;stroke-width:1.15;stroke-dasharray:-;stroke-linecap:round;stroke-linejoin:round;" /><path d="M 18.0,-48.6 L 30.6,-48.6" style="stroke:#1f2937;fill:none;stroke-width:1.15;stroke-dasharray:-;stroke-linecap:round;stroke-linejoin:round;" /><path d="M 18.0,-66.60000000000001 L 30.6,-66.6" style="stroke:#1f2937;fill:none;stroke-width:1.15;stroke-dasharray:-;stroke-linecap:round;stroke-linejoin:round;" /><path d="M 80.64000000000001,-57.6 L 84.6,-57.6" style="stroke:#1f2937;fill:none;stroke-width:1.15;stroke-dasharray:-;stroke-linecap:round;stroke-linejoin:round;" /><path d="M 54.0,75.60000000000001 L 55.153,75.563 L 56.302,75.452 L 57.441,75.268 L 58.566,75.011 L 59.672,74.683 L 60.755,74.285 L 61.81,73.817 L 62.833,73.284 L 63.82,72.686 L 64.766,72.025 L 65.668,71.306 L 66.522,70.53 L 67.325,69.701 L 68.073,68.823 L 68.763,67.898 L 69.393,66.931 L 69.959,65.926 L 70.459,64.886 L 70.892,63.817 L 71.256,62.721 L 71.549,61.605 L 71.769,60.473 L 71.917,59.328 L 71.991,58.177 L 71.991,57.023 L 71.917,55.872 L 71.769,54.727 L 71.549,53.595 L 71.256,52.479 L 70.892,51.383 L 70.459,50.314 L 69.959,49.274 L 69.393,48.269 L 68.763,47.302 L 68.073,46.377 L 67.325,45.499 L 66.522,44.67 L 65.668,43.894 L 64.766,43.175 L 63.82,42.514 L 62.833,41.916 L 61.81,41.383 L 60.755,40.915 L 59.672,40.517 L 58.566,40.189 L 57.441,39.932 L 56.302,39.748 L 55.153,39.637 L 54,39.6 L 54,39.6 L 30.6,39.6 L 30.6,57.6 L 30.6,75.6 L 54,75.6" style="stroke:#1f2937;fill:none;stroke-width:1.15;stroke-dasharray:-;stroke-linecap:round;stroke-linejoin:round;" /><path d="M 18.0,66.60000000000001 L 30.6,66.6" style="stroke:#1f2937;fill:none;stroke-width:1.15;stroke-dasharray:-;stroke-linecap:round;stroke-linejoin:round;" /><path d="M 18.0,48.6 L 30.6,48.6" style="stroke:#1f2937;fill:none;stroke-width:1.15;stroke-dasharray:-;stroke-linecap:round;stroke-linejoin:round;" /><path d="M 80.64000000000001,57.6 L 84.6,57.6" style="stroke:#1f2937;fill:none;stroke-width:1.15;stroke-dasharray:-;stroke-linecap:round;stroke-linejoin:round;" /><path d="M 18.0,-66.60000000000001 L 1.8,-66.6 L -14.4,-66.6" style="stroke:#1f2937;fill:none;stroke-width:1.15;stroke-dasharray:-;stroke-linecap:round;stroke-linejoin:round;" /><path d="M 18.0,-48.6 L 1.8,-48.6 L -14.4,-48.6" style="stroke:#1f2937;fill:none;stroke-width:1.15;stroke-dasharray:-;stroke-linecap:round;stroke-linejoin:round;" /><path d="M 18.0,48.6 L 1.8,48.6 L -14.4,48.6" style="stroke:#1f2937;fill:none;stroke-width:1.15;stroke-dasharray:-;stroke-linecap:round;stroke-linejoin:round;" /><path d="M 18.0,66.60000000000001 L 1.8,66.6 L -14.4,66.6" style="stroke:#1f2937;fill:none;stroke-width:1.15;stroke-dasharray:-;stroke-linecap:round;stroke-linejoin:round;" /><path d="M 84.60000000000001,-57.6 L 111.6,-57.6 L 138.6,-57.6" style="stroke:#1f2937;fill:none;stroke-width:1.15;stroke-dasharray:-;stroke-linecap:round;stroke-linejoin:round;" /><path d="M 138.6,-57.6 L 138.6,-28.8 L 138.6,-0" style="stroke:#1f2937;fill:none;stroke-width:1.15;stroke-dasharray:-;stroke-linecap:round;stroke-linejoin:round;" /><path d="M 84.60000000000001,57.6 L 111.6,57.6 L 138.6,57.6" style="stroke:#1f2937;fill:none;stroke-width:1.15;stroke-dasharray:-;stroke-linecap:round;stroke-linejoin:round;" /><path d="M 138.6,57.6 L 138.6,28.8 L 138.6,-0" style="stroke:#1f2937;fill:none;stroke-width:1.15;stroke-dasharray:-;stroke-linecap:round;stroke-linejoin:round;" /><path d="M 138.6,-0.0 L 138.6,-14.4 L 129.6,-17.4 L 147.6,-23.4 L 129.6,-29.4 L 147.6,-35.4 L 129.6,-41.4 L 147.6,-47.4 L 138.6,-50.4 L 138.6,-64.8" style="stroke:#1f2937;fill:none;stroke-width:1.15;stroke-dasharray:-;stroke-linecap:round;stroke-linejoin:round;" /><path d="M 138.6,-0.0 L 167.4,-0 L 196.2,-0" style="stroke:#1f2937;fill:none;stroke-width:1.15;stroke-dasharray:-;stroke-linecap:round;stroke-linejoin:round;" /><text x="-25.200000000000003" y="-79.60000000000001" dominant-baseline="central" fill="#1f2937" font-size="13" font-family="sans" text-anchor="middle"><tspan x="-25.200000000000003" dy="13">A</tspan></text><text x="-25.200000000000003" y="-61.6" dominant-baseline="central" fill="#1f2937" font-size="13" font-family="sans" text-anchor="middle"><tspan x="-25.200000000000003" dy="13">B</tspan></text><text x="-25.200000000000003" y="35.6" dominant-baseline="central" fill="#1f2937" font-size="13" font-family="sans" text-anchor="middle"><tspan x="-25.200000000000003" dy="13">C</tspan></text><text x="-25.200000000000003" y="53.60000000000001" dominant-baseline="central" fill="#1f2937" font-size="13" font-family="sans" text-anchor="middle"><tspan x="-25.200000000000003" dy="13">D</tspan></text><text x="126.0" y="-45.4" dominant-baseline="central" fill="#1f2937" font-size="13" font-family="sans" text-anchor="end"><tspan x="126.0" dy="13">R<tspan baseline-shift="-2" font-size="smaller">c</tspan></tspan></text><text x="156.60000000000002" y="-85.0" dominant-baseline="central" fill="#1f2937" font-size="13" font-family="sans" text-anchor="middle"><tspan x="156.60000000000002" dy="13">+VCC</tspan></text><text x="203.39999999999998" y="-4.000000000000002" dominant-baseline="central" fill="#1f2937" font-size="13" font-family="sans" text-anchor="middle"><tspan x="203.39999999999998" dy="13">Y</tspan></text><text x="142.20000000000002" y="91.39999999999999" dominant-baseline="central" fill="#1f2937" font-size="13" font-family="sans" text-anchor="middle"><tspan x="142.20000000000002" dy="13">Y=<tspan text-decoration="overline">AB}\cdot\overline{CD</tspan>  (wired-AND)</tspan></text><circle cx="138.6" cy="-0" r="2.7" style="stroke:#1f2937;fill:#1f2937;stroke-width:1.15;stroke-dasharray:-;" /></svg>