<svg style="max-width:480px;width:100%;height:auto;display:block;margin:1em auto;background:#fff;padding:10px;border:1px solid #e5e7eb;border-radius:6px" xmlns="http://www.w3.org/2000/svg" xmlns:xlink="http://www.w3.org/1999/xlink" xml:lang="en" viewBox="7.391000000000001 -110.82000000000001 138.377 198.46"><path d="M 72.0,-60.12 L 72,-45.12 L 87,-45.12 L 87,-15.12 L 72,-15.12 L 72,-0.12" style="stroke:#1f2937;fill:none;stroke-width:1.15;stroke-dasharray:-;stroke-linecap:round;stroke-linejoin:round;" /><path d="M 72.0,-45.120000000000005 L 78,-45.12" style="stroke:#1f2937;fill:none;stroke-width:1.15;stroke-dasharray:-;stroke-linecap:round;stroke-linejoin:round;" /><path d="M 85 -45.12 L 78 -40.62 L 78 -49.62 Z" style="stroke:#1f2937;fill:#1f2937;stroke-linecap:butt;stroke-linejoin:miter;" /><path d="M 90.0,-42.12 L 90,-18.12" style="stroke:#1f2937;fill:none;stroke-width:1.15;stroke-dasharray:-;stroke-linecap:round;stroke-linejoin:round;" /><path d="M 90.0,-42.12 L 105,-42.12" style="stroke:#1f2937;fill:none;stroke-width:1.15;stroke-dasharray:-;stroke-linecap:round;stroke-linejoin:round;" /><path d="M 72.0,-0.0 L 72,15 L 87,15 L 87,45 L 72,45 L 72,60" style="stroke:#1f2937;fill:none;stroke-width:1.15;stroke-dasharray:-;stroke-linecap:round;stroke-linejoin:round;" /><path d="M 87.0,45.0 L 81,45" style="stroke:#1f2937;fill:none;stroke-width:1.15;stroke-dasharray:-;stroke-linecap:round;stroke-linejoin:round;" /><path d="M 74 45 L 81 40.5 L 81 49.5 Z" style="stroke:#1f2937;fill:#1f2937;stroke-linecap:butt;stroke-linejoin:miter;" /><path d="M 90.0,17.999999999999996 L 90,42" style="stroke:#1f2937;fill:none;stroke-width:1.15;stroke-dasharray:-;stroke-linecap:round;stroke-linejoin:round;" /><path d="M 90.0,42.0 L 105,42" style="stroke:#1f2937;fill:none;stroke-width:1.15;stroke-dasharray:-;stroke-linecap:round;stroke-linejoin:round;" /><path d="M 72.0,-60.12 L 72,-76.32 L 72,-92.52" style="stroke:#1f2937;fill:none;stroke-width:1.15;stroke-dasharray:-;stroke-linecap:round;stroke-linejoin:round;" /><path d="M 72.0,59.99999999999999 L 72,74.4 L 63,74.4 L 81,74.4 M 65.7,78.72 L 78.3,78.72 M 70.2,83.04 L 73.8,83.04" style="stroke:#1f2937;fill:none;stroke-width:1.15;stroke-dasharray:-;stroke-linecap:round;stroke-linejoin:round;" /><path d="M 105.0,-42.12 L 105,-0.06 L 105,42" style="stroke:#1f2937;fill:none;stroke-width:1.15;stroke-dasharray:-;stroke-linecap:round;stroke-linejoin:round;" /><path d="M 105.0,-42.12 L 76.2,-42.12 L 47.4,-42.12" style="stroke:#1f2937;fill:none;stroke-width:1.15;stroke-dasharray:-;stroke-linecap:round;stroke-linejoin:round;" /><path d="M 72.0,-0.0 L 100.8,-0 L 129.6,-0" style="stroke:#1f2937;fill:none;stroke-width:1.15;stroke-dasharray:-;stroke-linecap:round;stroke-linejoin:round;" /><text x="28.799999999999997" y="-112.72" dominant-baseline="central" fill="#1f2937" font-size="13" font-family="sans" text-anchor="middle"><tspan x="28.799999999999997" dy="13">+VDD</tspan></text><text x="29.399999999999995" y="-55.12" dominant-baseline="central" fill="#1f2937" font-size="13" font-family="sans" text-anchor="middle"><tspan x="29.399999999999995" dy="13">A</tspan></text><text x="136.8" y="-20.2" dominant-baseline="central" fill="#1f2937" font-size="13" font-family="sans" text-anchor="middle"><tspan x="136.8" dy="13">Y</tspan></text><text x="111.60000000000001" y="19.4" dominant-baseline="central" fill="#1f2937" font-size="13" font-family="sans" text-anchor="middle"><tspan x="111.60000000000001" dy="13">Y=<tspan text-decoration="overline">A</tspan></tspan></text><circle cx="105" cy="-42.12" r="2.7" style="stroke:#1f2937;fill:#1f2937;stroke-width:1.15;stroke-dasharray:-;" /><circle cx="72" cy="-0" r="2.7" style="stroke:#1f2937;fill:#1f2937;stroke-width:1.15;stroke-dasharray:-;" /></svg>