<svg style="max-width:480px;width:100%;height:auto;display:block;margin:1em auto;background:#fff;padding:10px;border:1px solid #e5e7eb;border-radius:6px" xmlns="http://www.w3.org/2000/svg" xmlns:xlink="http://www.w3.org/1999/xlink" xml:lang="en" viewBox="-15.44199999999999 -65.44 180.30200000000005 166.54000000000002"><circle cx="103.32" cy="-43.2" r="4.32" style="stroke:#1f2937;fill:none;stroke-width:1.15;stroke-dasharray:-;" /><circle cx="103.32" cy="43.2" r="4.32" style="stroke:#1f2937;fill:none;stroke-width:1.15;stroke-dasharray:-;" /><path d="M 55.8,-25.559999999999995 L 73.8,-25.56 L 74.314,-25.567 L 74.829,-25.589 L 75.343,-25.626 L 75.857,-25.678 L 76.371,-25.744 L 76.886,-25.824 L 77.4,-25.92 L 77.914,-26.03 L 78.429,-26.155 L 78.943,-26.295 L 79.457,-26.449 L 79.971,-26.618 L 80.486,-26.802 L 81,-27 L 81.514,-27.213 L 82.029,-27.441 L 82.543,-27.683 L 83.057,-27.94 L 83.571,-28.212 L 84.086,-28.499 L 84.6,-28.8 L 85.114,-29.116 L 85.629,-29.447 L 86.143,-29.792 L 86.657,-30.152 L 87.171,-30.527 L 87.686,-30.916 L 88.2,-31.32 L 88.714,-31.739 L 89.229,-32.172 L 89.743,-32.62 L 90.257,-33.083 L 90.771,-33.561 L 91.286,-34.053 L 91.8,-34.56 L 92.314,-35.082 L 92.829,-35.618 L 93.343,-36.169 L 93.857,-36.735 L 94.371,-37.315 L 94.886,-37.91 L 95.4,-38.52 L 95.914,-39.144 L 96.429,-39.784 L 96.943,-40.438 L 97.457,-41.106 L 97.971,-41.789 L 98.486,-42.487 L 99,-43.2 L 99,-43.2 L 98.486,-43.913 L 97.971,-44.611 L 97.457,-45.294 L 96.943,-45.962 L 96.429,-46.616 L 95.914,-47.256 L 95.4,-47.88 L 94.886,-48.49 L 94.371,-49.085 L 93.857,-49.665 L 93.343,-50.231 L 92.829,-50.782 L 92.314,-51.318 L 91.8,-51.84 L 91.286,-52.347 L 90.771,-52.839 L 90.257,-53.317 L 89.743,-53.78 L 89.229,-54.228 L 88.714,-54.661 L 88.2,-55.08 L 87.686,-55.484 L 87.171,-55.873 L 86.657,-56.248 L 86.143,-56.608 L 85.629,-56.953 L 85.114,-57.284 L 84.6,-57.6 L 84.086,-57.901 L 83.571,-58.188 L 83.057,-58.46 L 82.543,-58.717 L 82.029,-58.959 L 81.514,-59.187 L 81,-59.4 L 80.486,-59.598 L 79.971,-59.782 L 79.457,-59.951 L 78.943,-60.105 L 78.429,-60.245 L 77.914,-60.37 L 77.4,-60.48 L 76.886,-60.576 L 76.371,-60.656 L 75.857,-60.722 L 75.343,-60.774 L 74.829,-60.811 L 74.314,-60.833 L 73.8,-60.84 L 55.8,-60.84 L 55.8,-60.84 L 56.491,-60.12 L 57.154,-59.4 L 57.787,-58.68 L 58.392,-57.96 L 58.968,-57.24 L 59.515,-56.52 L 60.034,-55.8 L 60.523,-55.08 L 60.984,-54.36 L 61.416,-53.64 L 61.819,-52.92 L 62.194,-52.2 L 62.539,-51.48 L 62.856,-50.76 L 63.144,-50.04 L 63.403,-49.32 L 63.634,-48.6 L 63.835,-47.88 L 64.008,-47.16 L 64.152,-46.44 L 64.267,-45.72 L 64.354,-45 L 64.411,-44.28 L 64.44,-43.56 L 64.44,-42.84 L 64.411,-42.12 L 64.354,-41.4 L 64.267,-40.68 L 64.152,-39.96 L 64.008,-39.24 L 63.835,-38.52 L 63.634,-37.8 L 63.403,-37.08 L 63.144,-36.36 L 62.856,-35.64 L 62.539,-34.92 L 62.194,-34.2 L 61.819,-33.48 L 61.416,-32.76 L 60.984,-32.04 L 60.523,-31.32 L 60.034,-30.6 L 59.515,-29.88 L 58.968,-29.16 L 58.392,-28.44 L 57.787,-27.72 L 57.154,-27 L 56.491,-26.28 L 55.8,-25.56" style="stroke:#1f2937;fill:none;stroke-width:1.15;stroke-dasharray:-;stroke-linecap:round;stroke-linejoin:round;" /><path d="M 43.199999999999996,-34.199999999999996 L 62.194,-34.2" style="stroke:#1f2937;fill:none;stroke-width:1.15;stroke-dasharray:-;stroke-linecap:round;stroke-linejoin:round;" /><path d="M 43.199999999999996,-52.199999999999996 L 62.194,-52.2" style="stroke:#1f2937;fill:none;stroke-width:1.15;stroke-dasharray:-;stroke-linecap:round;stroke-linejoin:round;" /><path d="M 107.64000000000001,-43.199999999999996 L 111.6,-43.2" style="stroke:#1f2937;fill:none;stroke-width:1.15;stroke-dasharray:-;stroke-linecap:round;stroke-linejoin:round;" /><path d="M 55.8,60.839999999999996 L 73.8,60.84 L 74.314,60.833 L 74.829,60.811 L 75.343,60.774 L 75.857,60.722 L 76.371,60.656 L 76.886,60.576 L 77.4,60.48 L 77.914,60.37 L 78.429,60.245 L 78.943,60.105 L 79.457,59.951 L 79.971,59.782 L 80.486,59.598 L 81,59.4 L 81.514,59.187 L 82.029,58.959 L 82.543,58.717 L 83.057,58.46 L 83.571,58.188 L 84.086,57.901 L 84.6,57.6 L 85.114,57.284 L 85.629,56.953 L 86.143,56.608 L 86.657,56.248 L 87.171,55.873 L 87.686,55.484 L 88.2,55.08 L 88.714,54.661 L 89.229,54.228 L 89.743,53.78 L 90.257,53.317 L 90.771,52.839 L 91.286,52.347 L 91.8,51.84 L 92.314,51.318 L 92.829,50.782 L 93.343,50.231 L 93.857,49.665 L 94.371,49.085 L 94.886,48.49 L 95.4,47.88 L 95.914,47.256 L 96.429,46.616 L 96.943,45.962 L 97.457,45.294 L 97.971,44.611 L 98.486,43.913 L 99,43.2 L 99,43.2 L 98.486,42.487 L 97.971,41.789 L 97.457,41.106 L 96.943,40.438 L 96.429,39.784 L 95.914,39.144 L 95.4,38.52 L 94.886,37.91 L 94.371,37.315 L 93.857,36.735 L 93.343,36.169 L 92.829,35.618 L 92.314,35.082 L 91.8,34.56 L 91.286,34.053 L 90.771,33.561 L 90.257,33.083 L 89.743,32.62 L 89.229,32.172 L 88.714,31.739 L 88.2,31.32 L 87.686,30.916 L 87.171,30.527 L 86.657,30.152 L 86.143,29.792 L 85.629,29.447 L 85.114,29.116 L 84.6,28.8 L 84.086,28.499 L 83.571,28.212 L 83.057,27.94 L 82.543,27.683 L 82.029,27.441 L 81.514,27.213 L 81,27 L 80.486,26.802 L 79.971,26.618 L 79.457,26.449 L 78.943,26.295 L 78.429,26.155 L 77.914,26.03 L 77.4,25.92 L 76.886,25.824 L 76.371,25.744 L 75.857,25.678 L 75.343,25.626 L 74.829,25.589 L 74.314,25.567 L 73.8,25.56 L 55.8,25.56 L 55.8,25.56 L 56.491,26.28 L 57.154,27 L 57.787,27.72 L 58.392,28.44 L 58.968,29.16 L 59.515,29.88 L 60.034,30.6 L 60.523,31.32 L 60.984,32.04 L 61.416,32.76 L 61.819,33.48 L 62.194,34.2 L 62.539,34.92 L 62.856,35.64 L 63.144,36.36 L 63.403,37.08 L 63.634,37.8 L 63.835,38.52 L 64.008,39.24 L 64.152,39.96 L 64.267,40.68 L 64.354,41.4 L 64.411,42.12 L 64.44,42.84 L 64.44,43.56 L 64.411,44.28 L 64.354,45 L 64.267,45.72 L 64.152,46.44 L 64.008,47.16 L 63.835,47.88 L 63.634,48.6 L 63.403,49.32 L 63.144,50.04 L 62.856,50.76 L 62.539,51.48 L 62.194,52.2 L 61.819,52.92 L 61.416,53.64 L 60.984,54.36 L 60.523,55.08 L 60.034,55.8 L 59.515,56.52 L 58.968,57.24 L 58.392,57.96 L 57.787,58.68 L 57.154,59.4 L 56.491,60.12 L 55.8,60.84" style="stroke:#1f2937;fill:none;stroke-width:1.15;stroke-dasharray:-;stroke-linecap:round;stroke-linejoin:round;" /><path d="M 43.199999999999996,52.199999999999996 L 62.194,52.2" style="stroke:#1f2937;fill:none;stroke-width:1.15;stroke-dasharray:-;stroke-linecap:round;stroke-linejoin:round;" /><path d="M 43.199999999999996,34.199999999999996 L 62.194,34.2" style="stroke:#1f2937;fill:none;stroke-width:1.15;stroke-dasharray:-;stroke-linecap:round;stroke-linejoin:round;" /><path d="M 107.64000000000001,43.199999999999996 L 111.6,43.2" style="stroke:#1f2937;fill:none;stroke-width:1.15;stroke-dasharray:-;stroke-linecap:round;stroke-linejoin:round;" /><path d="M 43.199999999999996,-52.199999999999996 L 27,-52.2 L 10.8,-52.2" style="stroke:#1f2937;fill:none;stroke-width:1.15;stroke-dasharray:-;stroke-linecap:round;stroke-linejoin:round;" /><path d="M 43.199999999999996,34.199999999999996 L 27,34.2 L 10.8,34.2" style="stroke:#1f2937;fill:none;stroke-width:1.15;stroke-dasharray:-;stroke-linecap:round;stroke-linejoin:round;" /><path d="M 43.199999999999996,-34.199999999999996 L 111.6,-34.2 L 111.6,43.2" style="stroke:#1f2937;fill:none;stroke-width:1.15;stroke-dasharray:-;stroke-linecap:round;stroke-linejoin:round;" /><path d="M 43.199999999999996,52.199999999999996 L 111.6,52.2 L 111.6,-43.2" style="stroke:#1f2937;fill:none;stroke-width:1.15;stroke-dasharray:-;stroke-linecap:round;stroke-linejoin:round;" /><path d="M 111.60000000000002,-43.199999999999996 L 129.6,-43.2 L 147.6,-43.2" style="stroke:#1f2937;fill:none;stroke-width:1.15;stroke-dasharray:-;stroke-linecap:round;stroke-linejoin:round;" /><path d="M 111.60000000000002,43.199999999999996 L 129.6,43.2 L 147.6,43.2" style="stroke:#1f2937;fill:none;stroke-width:1.15;stroke-dasharray:-;stroke-linecap:round;stroke-linejoin:round;" /><text x="3.599999999999998" y="-65.19999999999999" dominant-baseline="central" fill="#1f2937" font-size="13" font-family="sans" text-anchor="middle"><tspan x="3.599999999999998" dy="13">S</tspan></text><text x="3.599999999999998" y="21.199999999999996" dominant-baseline="central" fill="#1f2937" font-size="13" font-family="sans" text-anchor="middle"><tspan x="3.599999999999998" dy="13">R</tspan></text><text x="154.8" y="-63.400000000000006" dominant-baseline="central" fill="#1f2937" font-size="13" font-family="sans" text-anchor="middle"><tspan x="154.8" dy="13">Q</tspan></text><text x="154.8" y="22.999999999999993" dominant-baseline="central" fill="#1f2937" font-size="13" font-family="sans" text-anchor="middle"><tspan x="154.8" dy="13"><tspan text-decoration="overline">Q</tspan></tspan></text><text x="46.800000000000004" y="77.0" dominant-baseline="central" fill="#1f2937" font-size="13" font-family="sans" text-anchor="middle"><tspan x="46.800000000000004" dy="13">Q<tspan baseline-shift="super" font-size="smaller">*</tspan>=S+<tspan text-decoration="overline">R</tspan>Q,\ SR=0</tspan></text><circle cx="111.6" cy="-43.2" r="2.7" style="stroke:#1f2937;fill:#1f2937;stroke-width:1.15;stroke-dasharray:-;" /><circle cx="111.6" cy="43.2" r="2.7" style="stroke:#1f2937;fill:#1f2937;stroke-width:1.15;stroke-dasharray:-;" /></svg>